<svg width="18" height="19" viewBox="0 0 18 19" fill="none" xmlns="http://www.w3.org/2000/svg">
<path d="M10.5238 14.2728L9.48206 16.0087C9.43209 16.092 9.36139 16.1609 9.27687 16.2088C9.19234 16.2566 9.09686 16.2818 8.99972 16.2818C8.90258 16.2818 8.8071 16.2566 8.72257 16.2088C8.63804 16.1609 8.56735 16.092 8.51738 16.0087L7.47675 14.2728C7.42671 14.1895 7.35596 14.1206 7.27138 14.0728C7.1868 14.025 7.09128 13.9999 6.99413 14H2.8125C2.66332 14 2.52024 13.9407 2.41475 13.8352C2.30926 13.7298 2.25 13.5867 2.25 13.4375V4.4375C2.25 4.28832 2.30926 4.14524 2.41475 4.03975C2.52024 3.93426 2.66332 3.875 2.8125 3.875H15.1875C15.3367 3.875 15.4798 3.93426 15.5852 4.03975C15.6907 4.14524 15.75 4.28832 15.75 4.4375V13.4375C15.75 13.5867 15.6907 13.7298 15.5852 13.8352C15.4798 13.9407 15.3367 14 15.1875 14H11.0059C10.9088 14 10.8134 14.0252 10.7289 14.073C10.6445 14.1208 10.5738 14.1896 10.5238 14.2728V14.2728Z" stroke="#B3B3B3" stroke-width="1.2" stroke-linecap="round" stroke-linejoin="round"/>
</svg>
