<svg width="32" height="14" viewBox="0 0 32 14" fill="none" xmlns="http://www.w3.org/2000/svg">
<path d="M5.13333 7.00159C17.2644 -5.59603 31.2617 7.00159 31.2617 7.00159C31.2617 7.00159 17.2644 19.5992 5.13333 7.00159Z" fill="#36C63F"/>
<path d="M22.8938 12.196C27.954 10.6073 31.4454 7.49925 31.5916 7.36769L32 7.00006L31.5916 6.63244C31.4454 6.50087 27.954 3.39274 22.8938 1.80404C19.902 0.864788 16.9897 0.661537 14.2377 1.20004C10.858 1.86129 7.72564 3.64642 4.92432 6.50543L-2.44735e-07 6.50543L-2.87974e-07 7.49463L4.92432 7.49463C7.7257 10.3536 10.8579 12.1388 14.2377 12.8C16.9897 13.3385 19.9021 13.1353 22.8938 12.196ZM14.4097 11.8258C11.5163 11.256 8.80595 9.80057 6.33845 7.49463L13.3259 7.49463L15.9805 10.1493L16.6798 9.44982L14.7247 7.49469L20.5294 7.49469L20.5294 6.5055L17.0575 6.5055L19.0127 4.5503L18.3133 3.85092L15.6587 6.5055L10.992 6.5055L12.4806 5.01687L11.7812 4.31749L9.59314 6.50556L6.33839 6.50556C8.80595 4.19961 11.5163 2.74417 14.4097 2.17429C16.9942 1.66529 19.7388 1.8551 22.5674 2.73842C26.4272 3.9438 29.4068 6.133 30.4887 7.00013C29.4067 7.86732 26.4272 10.0564 22.5674 11.2618C19.7389 12.1451 16.9942 12.3349 14.4097 11.8258Z" fill="#009F06"/>
<path opacity="0.3" d="M22.3945 7.49332L22.3945 6.50421L21.4615 6.50421L21.4615 7.49332L22.3945 7.49332Z" fill="white"/>
<path opacity="0.2" d="M24.2617 7.49332L24.2617 6.50421L23.3287 6.50421L23.3287 7.49332L24.2617 7.49332Z" fill="#1A1A1A"/>
</svg>
