<svg width="61" height="32" viewBox="0 0 61 32" fill="none" xmlns="http://www.w3.org/2000/svg">
<path fill-rule="evenodd" clip-rule="evenodd" d="M26.1012 27.7551C23.5171 29.8774 20.1026 31.1692 16.5034 31.1692C8.01319 31.1692 1.2072 24.3399 1.2072 15.9653C1.2072 7.56744 8.01319 0.738103 16.5034 0.738103C22.1329 0.738103 27.0243 3.78355 29.7004 8.39789C30.0694 8.49024 30.3465 8.58259 30.7152 8.67494C28.0394 3.50685 22.6867 0 16.5034 0C7.64379 0 0.46875 7.10604 0.46875 15.9653C0.46875 24.802 7.64414 32 16.5034 32C20.6564 32 24.4399 30.3391 27.301 27.7551H26.1012Z" fill="#CCCCCC"/>
<path fill-rule="evenodd" clip-rule="evenodd" d="M18.5342 27.0173H60.4086V20.7417H18.5342V27.0173Z" fill="#CCCCCC"/>
<path fill-rule="evenodd" clip-rule="evenodd" d="M20.6556 9.50508L20.4709 10.3359H18.4406C17.8869 16.2424 17.5178 21.0178 17.1488 23.2331C16.3183 27.2013 12.6268 29.416 10.2274 29.416C9.39698 29.416 8.38184 29.0473 8.38184 28.0321C8.38184 27.4784 8.84324 27.017 9.39698 27.017C10.2274 27.017 10.8735 27.6627 11.3349 28.4009C12.6271 27.6627 12.8115 27.017 13.3652 24.4326C13.6423 23.2331 14.3804 14.6732 14.7494 10.3359H13.0882L13.2729 9.50508H14.9341L15.1188 8.02888C16.0416 2.58408 20.0099 1.93799 21.4868 1.93799C22.2249 1.93799 23.7014 2.30704 23.7014 3.32219C23.7014 3.96794 23.1477 4.24499 22.5939 4.24499C21.5788 4.24499 21.1174 3.69124 20.6556 2.86044C18.9944 3.59889 18.7177 7.65948 18.533 9.50474H20.6556V9.50508ZM20.4713 17.0725C20.4713 12.7356 23.24 8.95168 27.9464 8.95168C30.8998 8.95168 32.5604 10.2439 32.5604 13.1046C32.5604 17.4419 29.792 21.1105 25.0853 21.1105C22.1325 21.1105 20.4713 19.8183 20.4713 17.0725ZM28.7772 13.7507C28.7772 12.6432 28.6848 9.96717 27.0239 9.96717C24.6246 9.96717 24.2552 14.6735 24.2552 16.4271C24.2552 17.4423 24.3475 20.188 26.0084 20.188C28.4078 20.1877 28.7772 15.504 28.7772 13.7507ZM33.5758 17.0725C33.5758 12.7356 36.4369 8.95168 41.1433 8.95168C44.0044 8.95168 45.7343 10.2439 45.7343 13.1046C45.7343 17.4419 42.8965 21.1105 38.1902 21.1105C35.3291 21.1105 33.5758 19.8183 33.5758 17.0725ZM41.9737 13.7507C41.9737 12.6432 41.8817 9.96717 40.2205 9.96717C37.7288 9.96717 37.4521 14.6735 37.4521 16.4271C37.4521 17.4423 37.4521 20.188 39.113 20.188C41.6043 20.1877 41.9737 15.504 41.9737 13.7507ZM60.0391 19.7263C58.3775 20.4644 56.3472 21.1101 54.9633 21.1101C54.2252 21.1101 54.3169 20.0023 54.3169 19.5412C54.3169 18.9882 54.3169 18.249 54.5019 16.7962L54.4092 16.7035C53.4864 18.6184 51.6408 21.1101 49.2415 21.1101C47.3955 21.1101 46.5647 19.1722 46.5647 17.5343C46.5647 13.4733 49.7945 9.13638 54.4092 9.13638H55.332C55.7014 6.27529 55.7014 5.07578 55.7014 4.15264C55.7014 3.87594 55.7014 3.59889 55.4244 3.59889C55.1473 3.59889 54.7786 3.69124 53.8555 3.96794L53.6711 3.22984C55.5171 2.58409 57.5474 2.21469 59.3926 2.12234C59.5777 2.12234 59.6697 2.12234 59.6697 2.49139C59.6697 4.89074 57.8237 17.4416 57.8237 18.7111C57.8237 18.9882 57.8237 19.4492 58.1931 19.4492C58.3775 19.4492 59.0239 19.2642 59.762 18.9878L60.0391 19.7263ZM54.0398 15.781C54.6863 14.2121 54.8706 12.6432 55.24 10.2439C55.055 10.1512 54.8706 10.1512 54.7786 10.1512C51.9175 10.1512 50.533 14.3965 50.533 16.7035C50.533 17.2572 50.6257 18.6184 51.4561 18.6184C52.656 18.6188 53.6711 16.7038 54.0398 15.781Z" fill="#CCCCCC"/>
<path fill-rule="evenodd" clip-rule="evenodd" d="M21.0254 22.2178H22.0405L23.3324 24.1558V22.2178H24.1632V25.909H23.4247L21.8558 23.7871V25.909H21.0254V22.2178ZM26.5622 22.2178H29.4233V22.9563H27.6697V23.6017H28.7775V24.4325H27.6697V25.0782H29.4233V25.909H26.5622V22.2178ZM32.4691 22.9563H31.4539V22.2178H34.5914V22.9563H33.5762V25.909H32.4691V22.9563ZM36.4373 22.2178H37.5441L38.0062 24.1558H38.0979L38.5593 22.2178H39.4828L39.9438 24.1558H40.0365L40.4979 22.2178H41.328L40.4052 25.909H39.4828L38.9287 23.8787L38.3749 25.909H37.4525L36.4373 22.2178ZM45.0889 26.0017C44.0048 26.0017 43.2663 25.2636 43.2663 24.0634C43.2663 22.8639 44.0044 22.1255 45.0889 22.1255C46.1967 22.1255 46.8422 22.8636 46.8422 24.0634C46.8422 25.2633 46.1964 26.0017 45.0889 26.0017ZM44.4432 24.0631C44.4432 25.0782 44.7202 25.2633 45.0889 25.2633C45.4583 25.2633 45.7347 25.0782 45.7347 24.0631C45.7347 23.0486 45.4583 22.8636 45.0889 22.8636C44.6275 22.8636 44.4432 23.1406 44.4432 24.0631ZM49.0568 22.2178H50.9028C52.1023 22.2178 52.3793 22.7709 52.3793 23.233C52.3793 23.6944 52.1023 24.0631 51.6412 24.1558L52.3793 25.909H51.1798L50.6261 24.3401H50.1646V25.909H49.0568V22.2178ZM50.1646 23.6944H50.7184C50.9948 23.6944 51.2721 23.5093 51.2721 23.325C51.2721 23.0486 51.0871 22.8636 50.7184 22.8636H50.1646V23.6944ZM54.6866 22.2178H55.7941V23.6944L56.9013 22.2178H57.9164L56.9936 23.4173L58.1008 25.909H56.9936L56.2555 24.3401L55.7941 24.9866V25.909H54.6866V22.2178Z" fill="white"/>
</svg>
