<svg width="41" height="40" viewBox="0 0 41 40" fill="none" xmlns="http://www.w3.org/2000/svg">
<g clip-path="url(#clip0_629_3527)">
<path d="M34.0183 15.2101V13.6723C34.0183 9.9916 32.7157 6.57143 30.3544 4.03361C27.9342 1.42857 24.6065 0 20.9762 0H19.7073C16.0771 0 12.7494 1.42857 10.3292 4.03361C7.96784 6.57143 6.66532 9.9916 6.66532 13.6723V15.2101C3.79977 15.4034 1.52246 17.7899 1.52246 20.7059V23.1092C1.52246 26.1429 3.99305 28.6134 7.02666 28.6134H10.1275C10.6821 28.6134 11.1359 28.1597 11.1359 27.605V16.2017C11.1359 15.6471 10.6821 15.1933 10.1275 15.1933H8.68213V13.6723C8.68213 7.02521 13.4216 2.01681 19.6989 2.01681H20.9678C27.2536 2.01681 31.9846 7.02521 31.9846 13.6723V15.1933H30.5393C29.9847 15.1933 29.5309 15.6471 29.5309 16.2017V27.5966C29.5309 28.1513 29.9847 28.605 30.5393 28.605H31.951C31.5393 33.8655 27.9174 35.084 26.2367 35.3613C25.7746 33.9412 24.4384 32.916 22.867 32.916H20.346C18.3964 32.916 16.8082 34.5042 16.8082 36.4538C16.8082 38.4034 18.3964 40 20.346 40H22.8754C24.5057 40 25.8754 38.8908 26.2872 37.395C27.1107 37.2773 28.4132 36.9832 29.7073 36.2269C31.5309 35.1597 33.6905 32.9832 33.9762 28.5966C36.8586 28.4202 39.1443 26.0252 39.1443 23.1008V20.6975C39.1527 17.7899 36.8838 15.395 34.0183 15.2101ZM9.13591 26.5882H7.04347C5.1191 26.5882 3.55607 25.0252 3.55607 23.1008V20.6975C3.55607 18.7731 5.1191 17.2101 7.04347 17.2101H9.13591V26.5882ZM22.8754 37.9832H20.346C19.5057 37.9832 18.825 37.3025 18.825 36.4622C18.825 35.6218 19.5057 34.9412 20.346 34.9412H22.8754C23.7157 34.9412 24.3964 35.6218 24.3964 36.4622C24.3964 37.3025 23.7157 37.9832 22.8754 37.9832ZM37.1359 23.1008C37.1359 25.0252 35.5729 26.5882 33.6485 26.5882H31.5561V17.2101H33.6485C35.5729 17.2101 37.1359 18.7731 37.1359 20.6975V23.1008Z" fill="#00B307"/>
</g>
<defs>
<clipPath id="clip0_629_3527">
<rect width="40" height="40" fill="white" transform="translate(0.333008)"/>
</clipPath>
</defs>
</svg>
