<svg width="32" height="33" viewBox="0 0 32 33" fill="none" xmlns="http://www.w3.org/2000/svg">
<g clip-path="url(#clip0_460_43091)">
<path d="M31.9759 1.3712C31.9127 1.17858 31.7368 1.04539 31.5343 1.03695C30.5147 0.994517 27.7279 1.00183 23.8822 1.9852C20.3025 2.90064 16.9433 4.40533 14.1675 6.3367C13.9472 6.49002 13.893 6.79283 14.0462 7.01314C14.1994 7.23345 14.5022 7.28777 14.7226 7.13452C17.4039 5.2687 20.6546 3.81377 24.1229 2.92683C25.4189 2.59545 26.7587 2.34389 28.029 2.18627C27.5082 2.4112 26.95 2.67439 26.369 2.98289C22.4401 5.06858 20.245 7.73552 19.032 9.8792C18.8726 9.16395 18.8289 8.34189 18.8286 7.97552C18.8285 7.7072 18.611 7.48977 18.3427 7.48977C18.0743 7.48977 17.8567 7.70733 17.8567 7.9757C17.8567 8.19077 17.8739 9.98302 18.4167 11.0878C17.6686 12.6852 16.9689 14.2821 16.2918 15.8286C16.0042 16.4855 15.7211 17.132 15.4404 17.7649C15.0026 16.9405 14.4256 15.4479 14.5839 13.4956C14.6055 13.2282 14.4063 12.9937 14.1387 12.972C13.872 12.9508 13.6368 13.1496 13.6151 13.4171C13.3877 16.2219 14.503 18.1801 14.9555 18.848C14.1074 20.7223 13.271 22.4484 12.3902 23.9217C11.9367 22.895 11.2263 20.9387 11.2263 18.7604C11.2263 18.492 11.0087 18.2745 10.7404 18.2745C10.472 18.2745 10.2544 18.492 10.2544 18.7604C10.2544 21.6498 11.372 24.1069 11.7742 24.8975C10.8119 26.3353 9.78436 27.4596 8.62367 28.1438C5.08779 24.3037 4.74292 17.0988 10.9201 10.4274C11.6223 9.66902 12.3929 8.94508 13.2107 8.27577C13.4184 8.10577 13.4489 7.79964 13.2789 7.59195C13.1089 7.38427 12.8027 7.35377 12.5951 7.5237C11.7429 8.22133 10.9394 8.97614 10.207 9.76708C3.69104 16.8043 4.05817 24.4746 7.79436 28.6765C4.54073 30.8661 0.514981 31.0029 0.472856 31.0041C0.204731 31.0113 -0.00683118 31.2344 0.000168815 31.5026C0.00710632 31.7665 0.223231 31.9758 0.485731 31.9758C0.490044 31.9758 0.494419 31.9757 0.498731 31.9756C0.685231 31.9707 4.97954 31.83 8.49723 29.3732C9.56311 30.2429 11.235 30.772 13.2621 30.772C15.557 30.772 18.3072 30.0937 21.148 28.4638C23.7798 26.9538 25.6666 24.6438 26.7561 21.5981C27.6891 18.9901 28.0037 15.8521 27.666 12.5234C27.0639 6.58933 29.3056 3.91164 31.8177 1.90202C31.9759 1.77533 32.0389 1.56383 31.9759 1.3712ZM27.6832 5.34633C26.7273 7.34727 26.4054 9.72702 26.699 12.6214C27.0222 15.8071 26.7255 18.798 25.8409 21.2707C24.8315 24.0926 23.0898 26.229 20.6643 27.6208C17.6035 29.377 15.0344 29.7749 13.418 29.7995C11.7655 29.8254 10.3365 29.4726 9.37767 28.8195C10.1757 28.3018 10.9084 27.6075 11.5969 26.7693C11.6348 26.7696 11.6757 26.7698 11.7214 26.7698C12.1986 26.7698 13.0877 26.7493 14.1367 26.6268C16.2354 26.3815 17.8898 25.8636 19.0541 25.0875C19.2774 24.9386 19.3377 24.6369 19.1889 24.4136C19.04 24.1904 18.7383 24.1301 18.515 24.2789C16.7214 25.4746 13.8324 25.7343 12.3412 25.7856C13.2865 24.4374 14.1572 22.8185 15.0159 21.0255C15.8609 21.0234 18.104 20.8406 20.2367 19.1404C20.4465 18.9731 20.481 18.6673 20.3137 18.4575C20.1464 18.2476 19.8407 18.2132 19.6309 18.3805C18.0646 19.6291 16.407 19.9518 15.4841 20.0291C16.0444 18.8166 16.6045 17.5374 17.182 16.2185C17.48 15.5377 17.7827 14.8468 18.0915 14.1512C18.1248 14.152 18.16 14.1525 18.197 14.1525C18.9295 14.1525 20.3882 13.9738 21.9912 12.7861C22.2068 12.6264 22.2521 12.322 22.0923 12.1064C21.9325 11.8908 21.6282 11.8455 21.4125 12.0053C20.4235 12.738 19.5133 13.0133 18.9238 13.1152C18.7809 13.14 18.6501 13.1556 18.5319 13.1656C18.8151 12.5371 19.1042 11.9065 19.401 11.2768C21.2114 7.43527 24.423 5.12058 26.7985 3.85527C27.8283 3.30677 28.7948 2.90214 29.5879 2.61302C28.8911 3.34727 28.2111 4.24133 27.6832 5.34633Z" fill="#00B307"/>
</g>
<defs>
<clipPath id="clip0_460_43091">
<rect width="32" height="32" fill="white" transform="translate(0 0.5)"/>
</clipPath>
</defs>
</svg>
