<svg width="45" height="32" viewBox="0 0 45 32" fill="none" xmlns="http://www.w3.org/2000/svg">
<rect x="0.5" y="0.5" width="44" height="30.7647" rx="4.79412" fill="#1A1A1A" stroke="#333333"/>
<path d="M18.5293 30.6767L43.6764 23.0664V26.7061C43.6764 28.899 41.8987 30.6767 39.7058 30.6767H18.5293Z" fill="#FD6020"/>
<path fill-rule="evenodd" clip-rule="evenodd" d="M38.9033 12.0586C40.2868 12.0586 41.0477 12.6985 41.0477 13.9074C41.1169 14.8318 40.4943 15.614 39.6642 15.7562L41.5319 18.3873H40.0793L38.4883 15.8274H38.3499V18.3873H37.174V12.0586H38.9033ZM38.3502 14.9741H38.696C39.457 14.9741 39.8028 14.6185 39.8028 13.9785C39.8028 13.4097 39.457 13.0541 38.696 13.0541H38.3502V14.9741ZM33.0929 18.3873H36.4132V17.3206H34.2688V15.614H36.344V14.5474H34.2688V13.1252H36.4132V12.0586H33.0929V18.3873ZM29.6345 16.3251L28.0435 12.0586H26.7984L29.3578 18.5295H29.9804L32.5398 12.0586H31.2947L29.6345 16.3251ZM15.5917 15.2585C15.5917 17.0362 16.9751 18.5295 18.7045 18.5295C19.2579 18.5295 19.7421 18.3873 20.2263 18.174V16.7518C19.8804 17.1784 19.3962 17.4629 18.8428 17.4629C17.736 17.4629 16.8368 16.6096 16.8368 15.4718V15.3296C16.7676 14.1919 17.6669 13.1963 18.7737 13.1252C19.327 13.1252 19.8804 13.4097 20.2263 13.8363V12.4141C19.8113 12.1297 19.2579 12.0586 18.7737 12.0586C16.9751 11.9164 15.5917 13.4097 15.5917 15.2585ZM13.4476 14.4763C12.7558 14.1919 12.5483 14.0496 12.5483 13.6941C12.6175 13.2674 12.9634 12.9119 13.3784 12.983C13.7243 12.983 14.0701 13.1963 14.3468 13.4808L14.9694 12.6274C14.4852 12.2008 13.8626 11.9164 13.2401 11.9164C12.2716 11.8452 11.4415 12.6274 11.3724 13.623V13.6941C11.3724 14.5474 11.7182 15.0452 12.825 15.4007C13.1017 15.4718 13.3784 15.614 13.6551 15.7563C13.8626 15.8985 14.001 16.1118 14.001 16.3962C14.001 16.894 13.5859 17.3207 13.1709 17.3207H13.1017C12.5483 17.3207 12.0641 16.9651 11.8566 16.4673L11.0957 17.2495C11.5107 18.0317 12.3408 18.4584 13.1709 18.4584C14.2777 18.5295 15.1769 17.6762 15.2461 16.5385V16.3251C15.1769 15.4718 14.831 15.0452 13.4476 14.4763ZM9.43543 18.3873H10.6114V12.0586H9.43543V18.3873ZM3.9707 12.0586H5.70005H6.04592C7.70609 12.1297 9.0204 13.5519 8.95122 15.2585C8.95122 16.1829 8.53618 17.0362 7.84444 17.6762C7.22188 18.174 6.46096 18.4584 5.70005 18.3873H3.9707V12.0586ZM5.49264 17.3206C6.04603 17.3918 6.6686 17.1784 7.08364 16.8229C7.49868 16.3962 7.70621 15.8273 7.70621 15.1874C7.70621 14.6185 7.49868 14.0496 7.08364 13.623C6.6686 13.2674 6.04603 13.0541 5.49264 13.1252H5.14677V17.3206H5.49264Z" fill="white"/>
<path fill-rule="evenodd" clip-rule="evenodd" d="M23.7543 11.9119C22.0249 11.9119 20.5723 13.334 20.5723 15.1829C20.5723 16.9606 21.9557 18.4539 23.7543 18.525C25.5528 18.5961 26.9363 17.1028 27.0054 15.254C26.9363 13.4052 25.5528 11.9119 23.7543 11.9119V11.9119Z" fill="#FD6020"/>
</svg>
