<svg width="45" height="32" viewBox="0 0 45 32" fill="none" xmlns="http://www.w3.org/2000/svg">
<rect x="0.5" y="0.5" width="44" height="30.7647" rx="4.79412" fill="#1A1A1A" stroke="#333333"/>
<path fill-rule="evenodd" clip-rule="evenodd" d="M14.2279 20.989H11.5017L9.45748 12.9606C9.36045 12.5913 9.15443 12.2648 8.85138 12.1109C8.09508 11.7242 7.26169 11.4165 6.35254 11.2613V10.9522H10.7441C11.3502 10.9522 11.8048 11.4165 11.8806 11.9557L12.9412 17.7469L15.666 10.9522H18.3164L14.2279 20.989ZM19.8314 20.989H17.2568L19.3768 10.9522H21.9514L19.8314 20.989ZM25.2823 13.7327C25.3581 13.1921 25.8127 12.883 26.343 12.883C27.1764 12.8054 28.0842 12.9606 28.8419 13.346L29.2964 11.185C28.5388 10.8759 27.7054 10.7207 26.9491 10.7207C24.4503 10.7207 22.632 12.1109 22.632 14.0404C22.632 15.5083 23.9199 16.279 24.8291 16.7433C25.8127 17.2063 26.1915 17.5154 26.1157 17.9783C26.1157 18.6728 25.3581 18.9819 24.6018 18.9819C23.6927 18.9819 22.7835 18.7504 21.9514 18.3637L21.4969 20.526C22.406 20.9114 23.3896 21.0666 24.2988 21.0666C27.1006 21.1429 28.8419 19.7539 28.8419 17.6693C28.8419 15.044 25.2823 14.8901 25.2823 13.7327ZM37.8528 20.989L35.8085 10.9522H33.6127C33.1582 10.9522 32.7036 11.2613 32.5521 11.7242L28.7666 20.989H31.417L31.946 19.5225H35.2024L35.5055 20.989H37.8528ZM33.991 13.6551L34.7473 17.4378H32.6273L33.991 13.6551Z" fill="white"/>
</svg>
