<svg width="45" height="32" viewBox="0 0 45 32" fill="none" xmlns="http://www.w3.org/2000/svg">
<rect x="0.5" y="0.5" width="44" height="30.7647" rx="4.79412" fill="#1A1A1A" stroke="#333333"/>
<path fill-rule="evenodd" clip-rule="evenodd" d="M12.5064 11.0424C12.1287 11.5081 11.5244 11.8755 10.92 11.823C10.8445 11.1932 11.1404 10.5241 11.4866 10.1109C11.8643 9.632 12.5253 9.29089 13.0604 9.26465C13.1234 9.92063 12.8779 10.5635 12.5064 11.0424ZM13.054 11.9476C12.5216 11.9157 12.0358 12.1145 11.6434 12.275C11.3908 12.3783 11.177 12.4658 11.0143 12.4658C10.8318 12.4658 10.6091 12.3737 10.3591 12.2702C10.0315 12.1346 9.657 11.9795 9.26426 11.987C8.36405 12.0001 7.52679 12.5314 7.06724 13.3776C6.12296 15.0701 6.82172 17.5759 7.73453 18.9535C8.18149 19.6357 8.71658 20.3835 9.42164 20.3573C9.73182 20.3451 9.95495 20.2464 10.1859 20.1443C10.4517 20.0268 10.7279 19.9047 11.1591 19.9047C11.5754 19.9047 11.8395 20.0236 12.093 20.1378C12.334 20.2463 12.5655 20.3506 12.9092 20.3442C13.6394 20.331 14.099 19.6619 14.5459 18.9797C15.0283 18.2475 15.2402 17.5329 15.2724 17.4245L15.2762 17.4119C15.2754 17.4111 15.2694 17.4083 15.2589 17.4033C15.0977 17.3264 13.8653 16.7384 13.8535 15.1619C13.8416 13.8387 14.831 13.1682 14.9867 13.0627C14.9962 13.0562 15.0026 13.0519 15.0055 13.0497C14.376 12.0788 13.3939 11.9739 13.054 11.9476ZM18.1094 20.272V10.0453H21.7921C23.6932 10.0453 25.0215 11.4097 25.0215 13.4039C25.0215 15.3981 23.668 16.7756 21.7417 16.7756H19.6328V20.272H18.1094ZM19.6326 11.3835H21.389C22.7109 11.3835 23.4664 12.1182 23.4664 13.4104C23.4664 14.7027 22.7109 15.444 21.3827 15.444H19.6326V11.3835ZM30.0513 19.0453C29.6484 19.8456 28.7608 20.3507 27.8039 20.3507C26.3875 20.3507 25.3991 19.4717 25.3991 18.1466C25.3991 16.8347 26.356 16.0803 28.1249 15.9688L30.0261 15.8507V15.2865C30.0261 14.4535 29.5036 14.0008 28.5719 14.0008C27.8039 14.0008 27.2436 14.4141 27.1303 15.0438H25.758C25.802 13.7188 26.9981 12.7545 28.616 12.7545C30.3597 12.7545 31.4929 13.7056 31.4929 15.1816V20.272H30.0827V19.0453H30.0513ZM28.2125 19.1372C27.4004 19.1372 26.8842 18.7304 26.8842 18.1073C26.8842 17.4644 27.3815 17.0905 28.3321 17.0315L30.0255 16.9199V17.4972C30.0255 18.4549 29.2449 19.1372 28.2125 19.1372ZM36.1702 20.6722C35.5596 22.463 34.8608 23.0534 33.3751 23.0534C33.2618 23.0534 32.8841 23.0403 32.796 23.014V21.7873C32.8904 21.8005 33.1233 21.8136 33.2429 21.8136C33.9165 21.8136 34.2942 21.5184 34.5272 20.7509L34.6657 20.2983L32.0846 12.8529H33.6773L35.4714 18.8945H35.5029L37.2971 12.8529H38.8457L36.1702 20.6722Z" fill="white"/>
</svg>
