<svg width="45" height="32" viewBox="0 0 45 32" fill="none" xmlns="http://www.w3.org/2000/svg">
<rect x="0.5" y="0.5" width="44" height="30.7647" rx="4.79412" fill="#1A1A1A" stroke="#333333"/>
<path fill-rule="evenodd" clip-rule="evenodd" d="M14.2288 20.989H11.5027L9.45846 12.9606C9.36143 12.5913 9.15541 12.2648 8.85236 12.1109C8.09606 11.7242 7.26267 11.4165 6.35352 11.2613V10.9522H10.7451C11.3512 10.9522 11.8058 11.4165 11.8815 11.9557L12.9422 17.7469L15.667 10.9522H18.3174L14.2288 20.989ZM19.8324 20.989H17.2578L19.3778 10.9522H21.9524L19.8324 20.989ZM25.2833 13.7327C25.3591 13.1921 25.8137 12.883 26.344 12.883C27.1774 12.8054 28.0852 12.9606 28.8428 13.346L29.2974 11.185C28.5398 10.8759 27.7064 10.7207 26.9501 10.7207C24.4513 10.7207 22.633 12.1109 22.633 14.0404C22.633 15.5083 23.9209 16.279 24.8301 16.7433C25.8137 17.2063 26.1925 17.5154 26.1167 17.9783C26.1167 18.6728 25.3591 18.9819 24.6028 18.9819C23.6936 18.9819 22.7845 18.7504 21.9524 18.3637L21.4978 20.526C22.407 20.9114 23.3906 21.0666 24.2997 21.0666C27.1016 21.1429 28.8428 19.7539 28.8428 17.6693C28.8428 15.044 25.2833 14.8901 25.2833 13.7327ZM37.8538 20.989L35.8095 10.9522H33.6137C33.1591 10.9522 32.7046 11.2613 32.553 11.7242L28.7676 20.989H31.4179L31.9469 19.5225H35.2034L35.5065 20.989H37.8538ZM33.992 13.6551L34.7483 17.4378H32.6283L33.992 13.6551Z" fill="white"/>
</svg>
