<svg width="45" height="32" viewBox="0 0 45 32" fill="none" xmlns="http://www.w3.org/2000/svg">
<rect x="0.5" y="0.5" width="44" height="30.7647" rx="4.79412" fill="#1A1A1A" stroke="#333333"/>
<path fill-rule="evenodd" clip-rule="evenodd" d="M28.5579 24.3935C33.5143 24.3935 37.5323 20.4233 37.5323 15.5258C37.5323 10.6284 33.5143 6.6582 28.5579 6.6582C26.3367 6.6582 24.304 7.45555 22.7369 8.77637C21.1698 7.45555 19.137 6.65821 16.9158 6.65821C11.9594 6.65821 7.94141 10.6284 7.94141 15.5259C7.94141 20.4233 11.9594 24.3935 16.9158 24.3935C19.1371 24.3935 21.1698 23.5962 22.7369 22.2753C24.304 23.5962 26.3367 24.3935 28.5579 24.3935Z" fill="#ED0006"/>
<path fill-rule="evenodd" clip-rule="evenodd" d="M22.7373 22.275C24.6668 20.6485 25.8903 18.2283 25.8903 15.5258C25.8903 12.8234 24.6668 10.4032 22.7373 8.77674C24.3045 7.45569 26.3374 6.6582 28.5588 6.6582C33.5152 6.6582 37.5332 10.6284 37.5332 15.5258C37.5332 20.4233 33.5152 24.3935 28.5588 24.3935C26.3374 24.3935 24.3045 23.596 22.7373 22.275Z" fill="#F9A000"/>
<path fill-rule="evenodd" clip-rule="evenodd" d="M22.7363 22.2761C24.666 20.6496 25.8896 18.2294 25.8896 15.5267C25.8896 12.8241 24.666 10.4038 22.7363 8.77734C20.8066 10.4038 19.583 12.8241 19.583 15.5267C19.583 18.2294 20.8066 20.6496 22.7363 22.2761Z" fill="#FF5E00"/>
</svg>
