<svg width="45" height="32" viewBox="0 0 45 32" fill="none" xmlns="http://www.w3.org/2000/svg">
<rect x="0.5" y="0.5" width="44" height="30.7647" rx="4.79412" fill="#1A1A1A" stroke="#333333"/>
<path fill-rule="evenodd" clip-rule="evenodd" d="M14.228 20.989H11.5019L9.4576 12.9606C9.36057 12.5913 9.15455 12.2648 8.8515 12.1109C8.0952 11.7242 7.26181 11.4165 6.35266 11.2613V10.9522H10.7442C11.3503 10.9522 11.8049 11.4165 11.8807 11.9557L12.9414 17.7469L15.6662 10.9522H18.3165L14.228 20.989ZM19.8315 20.989H17.2569L19.3769 10.9522H21.9515L19.8315 20.989ZM25.2825 13.7327C25.3582 13.1921 25.8128 12.883 26.3431 12.883C27.1765 12.8054 28.0844 12.9606 28.842 13.346L29.2966 11.185C28.5389 10.8759 27.7055 10.7207 26.9492 10.7207C24.4504 10.7207 22.6321 12.1109 22.6321 14.0404C22.6321 15.5083 23.9201 16.279 24.8292 16.7433C25.8128 17.2063 26.1916 17.5154 26.1159 17.9783C26.1159 18.6728 25.3582 18.9819 24.6019 18.9819C23.6928 18.9819 22.7836 18.7504 21.9516 18.3637L21.497 20.526C22.4061 20.9114 23.3897 21.0666 24.2989 21.0666C27.1008 21.1429 28.842 19.7539 28.842 17.6693C28.842 15.044 25.2825 14.8901 25.2825 13.7327ZM37.8529 20.989L35.8087 10.9522H33.6129C33.1583 10.9522 32.7037 11.2613 32.5522 11.7242L28.7667 20.989H31.4171L31.9461 19.5225H35.2026L35.5056 20.989H37.8529ZM33.9912 13.6551L34.7475 17.4378H32.6274L33.9912 13.6551Z" fill="white"/>
</svg>
