<svg width="45" height="32" viewBox="0 0 45 32" fill="none" xmlns="http://www.w3.org/2000/svg">
<rect x="0.5" y="0.5" width="44" height="30.7647" rx="4.79412" fill="#1A1A1A" stroke="#333333"/>
<path fill-rule="evenodd" clip-rule="evenodd" d="M28.5579 24.3925C33.5143 24.3925 37.5323 20.4223 37.5323 15.5249C37.5323 10.6274 33.5143 6.65723 28.5579 6.65723C26.3367 6.65723 24.304 7.45457 22.7369 8.77539C21.1698 7.45458 19.137 6.65723 16.9158 6.65723C11.9594 6.65723 7.94141 10.6274 7.94141 15.5249C7.94141 20.4223 11.9594 24.3925 16.9158 24.3925C19.1371 24.3925 21.1698 23.5952 22.7369 22.2744C24.304 23.5952 26.3367 24.3925 28.5579 24.3925Z" fill="#ED0006"/>
<path fill-rule="evenodd" clip-rule="evenodd" d="M22.7363 22.274C24.6658 20.6475 25.8893 18.2274 25.8893 15.5249C25.8893 12.8224 24.6658 10.4022 22.7363 8.77576C24.3035 7.45472 26.3364 6.65723 28.5578 6.65723C33.5142 6.65723 37.5322 10.6274 37.5322 15.5249C37.5322 20.4223 33.5142 24.3925 28.5578 24.3925C26.3364 24.3925 24.3035 23.595 22.7363 22.274Z" fill="#F9A000"/>
<path fill-rule="evenodd" clip-rule="evenodd" d="M22.7373 22.2744C24.667 20.6479 25.8906 18.2277 25.8906 15.525C25.8906 12.8224 24.667 10.4021 22.7373 8.77563C20.8076 10.4021 19.584 12.8224 19.584 15.525C19.584 18.2277 20.8076 20.6479 22.7373 22.2744Z" fill="#FF5E00"/>
</svg>
