<svg width="45" height="32" viewBox="0 0 45 32" fill="none" xmlns="http://www.w3.org/2000/svg">
<rect x="0.5" y="0.5" width="44" height="30.7647" rx="4.79412" fill="#1A1A1A" stroke="#333333"/>
<path d="M18.5293 30.6762L43.6764 23.0659V26.7056C43.6764 28.8985 41.8987 30.6762 39.7058 30.6762H18.5293Z" fill="#FD6020"/>
<path fill-rule="evenodd" clip-rule="evenodd" d="M38.9033 12.0583C40.2868 12.0583 41.0477 12.6983 41.0477 13.9072C41.1169 14.8316 40.4943 15.6138 39.6642 15.756L41.5319 18.387H40.0793L38.4883 15.8271H38.3499V18.387H37.174V12.0583H38.9033ZM38.3502 14.9738H38.696C39.457 14.9738 39.8028 14.6183 39.8028 13.9783C39.8028 13.4094 39.457 13.0539 38.696 13.0539H38.3502V14.9738ZM33.0929 18.387H36.4132V17.3204H34.2688V15.6138H36.344V14.5471H34.2688V13.125H36.4132V12.0583H33.0929V18.387ZM29.6345 16.3249L28.0435 12.0583H26.7984L29.3578 18.5293H29.9804L32.5398 12.0583H31.2947L29.6345 16.3249ZM15.5917 15.2582C15.5917 17.036 16.9751 18.5293 18.7045 18.5293C19.2579 18.5293 19.7421 18.3871 20.2263 18.1737V16.7515C19.8804 17.1782 19.3962 17.4626 18.8428 17.4626C17.736 17.4626 16.8368 16.6093 16.8368 15.4716V15.3294C16.7676 14.1916 17.6669 13.1961 18.7737 13.125C19.327 13.125 19.8804 13.4094 20.2263 13.8361V12.4139C19.8113 12.1294 19.2579 12.0583 18.7737 12.0583C16.9751 11.9161 15.5917 13.4094 15.5917 15.2582ZM13.4476 14.476C12.7558 14.1916 12.5483 14.0494 12.5483 13.6938C12.6175 13.2672 12.9634 12.9116 13.3784 12.9828C13.7243 12.9828 14.0701 13.1961 14.3468 13.4805L14.9694 12.6272C14.4852 12.2005 13.8626 11.9161 13.2401 11.9161C12.2716 11.845 11.4415 12.6272 11.3724 13.6227V13.6938C11.3724 14.5472 11.7182 15.0449 12.825 15.4005C13.1017 15.4716 13.3784 15.6138 13.6551 15.756C13.8626 15.8982 14.001 16.1116 14.001 16.396C14.001 16.8938 13.5859 17.3204 13.1709 17.3204H13.1017C12.5483 17.3204 12.0641 16.9649 11.8566 16.4671L11.0957 17.2493C11.5107 18.0315 12.3408 18.4582 13.1709 18.4582C14.2777 18.5293 15.1769 17.676 15.2461 16.5382V16.3249C15.1769 15.4716 14.831 15.0449 13.4476 14.476ZM9.43543 18.387H10.6114V12.0583H9.43543V18.387ZM3.9707 12.0583H5.70005H6.04592C7.70609 12.1295 9.0204 13.5516 8.95122 15.2583C8.95122 16.1827 8.53618 17.036 7.84444 17.676C7.22188 18.1737 6.46096 18.4582 5.70005 18.3871H3.9707V12.0583ZM5.49264 17.3204C6.04603 17.3915 6.6686 17.1782 7.08364 16.8226C7.49868 16.396 7.70621 15.8271 7.70621 15.1871C7.70621 14.6182 7.49868 14.0494 7.08364 13.6227C6.6686 13.2672 6.04603 13.0538 5.49264 13.125H5.14677V17.3204H5.49264Z" fill="white"/>
<path fill-rule="evenodd" clip-rule="evenodd" d="M23.7543 11.9116C22.0249 11.9116 20.5723 13.3338 20.5723 15.1826C20.5723 16.9604 21.9557 18.4537 23.7543 18.5248C25.5528 18.5959 26.9363 17.1026 27.0054 15.2538C26.9363 13.4049 25.5528 11.9116 23.7543 11.9116V11.9116Z" fill="#FD6020"/>
</svg>
