<svg width="45" height="32" viewBox="0 0 45 32" fill="none" xmlns="http://www.w3.org/2000/svg">
<rect x="0.5" y="0.5" width="44" height="30.7647" rx="4.79412" fill="#1A1A1A" stroke="#333333"/>
<path fill-rule="evenodd" clip-rule="evenodd" d="M12.5059 11.0424C12.1282 11.5081 11.5239 11.8755 10.9196 11.823C10.844 11.1932 11.1399 10.5241 11.4861 10.1109C11.8638 9.632 12.5248 9.29089 13.0599 9.26465C13.1229 9.92063 12.8774 10.5635 12.5059 11.0424ZM13.0535 11.9476C12.5211 11.9157 12.0353 12.1145 11.6429 12.275C11.3904 12.3783 11.1765 12.4658 11.0138 12.4658C10.8313 12.4658 10.6086 12.3737 10.3586 12.2702C10.031 12.1346 9.65651 11.9795 9.26377 11.987C8.36356 12.0001 7.5263 12.5314 7.06675 13.3776C6.12247 15.0701 6.82124 17.5759 7.73404 18.9535C8.181 19.6357 8.71609 20.3835 9.42115 20.3573C9.73133 20.3451 9.95446 20.2464 10.1854 20.1443C10.4512 20.0268 10.7274 19.9047 11.1586 19.9047C11.5749 19.9047 11.839 20.0236 12.0925 20.1378C12.3336 20.2463 12.565 20.3506 12.9087 20.3442C13.6389 20.331 14.0985 19.6619 14.5454 18.9797C15.0278 18.2475 15.2397 17.5329 15.2719 17.4245L15.2757 17.4119C15.2749 17.4111 15.2689 17.4083 15.2584 17.4033C15.0972 17.3264 13.8648 16.7384 13.853 15.1619C13.8411 13.8387 14.8305 13.1682 14.9862 13.0627C14.9957 13.0562 15.0021 13.0519 15.005 13.0497C14.3755 12.0788 13.3934 11.9739 13.0535 11.9476ZM18.1089 20.272V10.0453H21.7916C23.6927 10.0453 25.021 11.4097 25.021 13.4039C25.021 15.3981 23.6675 16.7756 21.7412 16.7756H19.6323V20.272H18.1089ZM19.6321 11.3835H21.3885C22.7105 11.3835 23.4659 12.1182 23.4659 13.4104C23.4659 14.7027 22.7105 15.444 21.3822 15.444H19.6321V11.3835ZM30.0508 19.0453C29.6479 19.8456 28.7603 20.3507 27.8034 20.3507C26.387 20.3507 25.3986 19.4717 25.3986 18.1466C25.3986 16.8347 26.3555 16.0803 28.1245 15.9688L30.0256 15.8507V15.2865C30.0256 14.4535 29.5031 14.0008 28.5714 14.0008C27.8034 14.0008 27.2431 14.4141 27.1298 15.0438H25.7575C25.8015 13.7188 26.9976 12.7545 28.6155 12.7545C30.3592 12.7545 31.4924 13.7056 31.4924 15.1816V20.272H30.0823V19.0453H30.0508ZM28.212 19.1372C27.3999 19.1372 26.8837 18.7304 26.8837 18.1073C26.8837 17.4644 27.3811 17.0905 28.3316 17.0315L30.025 16.9199V17.4972C30.025 18.4549 29.2444 19.1372 28.212 19.1372ZM36.1697 20.6722C35.5591 22.463 34.8603 23.0534 33.3747 23.0534C33.2613 23.0534 32.8836 23.0403 32.7955 23.014V21.7873C32.8899 21.8005 33.1228 21.8136 33.2425 21.8136C33.916 21.8136 34.2938 21.5184 34.5267 20.7509L34.6652 20.2983L32.0841 12.8529H33.6768L35.471 18.8945H35.5024L37.2966 12.8529H38.8452L36.1697 20.6722Z" fill="white"/>
</svg>
