<svg width="32" height="33" viewBox="0 0 32 33" fill="none" xmlns="http://www.w3.org/2000/svg">
<path d="M31.2749 4.84308C27.4022 4.84308 21.9311 5.16711 19.1352 7.96154C17.9247 9.17204 17.3202 11.1454 17.4771 13.3789C17.4975 13.674 17.6937 13.9253 17.9756 14.0184C18.256 14.1099 18.5641 14.0241 18.7559 13.7989C20.3108 11.9694 22.2435 10.5032 24.5046 9.4409C24.6964 9.34935 24.9231 9.34206 25.1295 9.41474C25.3111 9.48013 25.4535 9.60363 25.5276 9.76207C25.6816 10.0876 25.6322 10.5163 25.1207 10.7575C25.0917 10.772 25.0655 10.7909 25.0365 10.804C25.0263 10.8083 25.0147 10.8069 25.006 10.8113C19.4346 13.4299 16.6954 17.9986 15.4514 22.6966C14.5446 16.8143 12.6294 13.3514 10.8202 11.2254C9.51095 9.52816 8.22341 8.62861 7.47943 8.12005C7.34136 8.02557 6.92435 7.74077 6.7514 7.56782C6.46803 7.28445 6.46803 6.82378 6.7514 6.54041C7.03477 6.25848 7.49687 6.25848 7.81218 6.57236C7.88923 6.64068 8.01272 6.72787 8.16966 6.8325L8.29902 6.91969C9.35108 7.64043 11.31 8.97879 13.0479 11.8604C13.2034 12.1176 13.5042 12.2557 13.7963 12.2005C14.0928 12.1481 14.3252 11.92 14.3834 11.625C14.7627 9.68796 14.5927 6.81356 12.8649 5.08578C10.069 2.29278 4.59789 1.96875 0.726671 1.96875C0.32553 1.96868 0 2.29421 0 2.69528C0 6.56793 0.324032 12.0391 3.11846 14.835C4.28387 16.0004 6.08147 16.5236 7.86736 16.5236C9.32486 16.5236 10.7533 16.1588 11.8476 15.5267C13.3399 18.619 14.5316 23.2386 14.5316 30.3053C14.5316 30.7064 14.8571 31.0319 15.2582 31.0319C15.6592 31.0319 15.9848 30.7064 15.9848 30.3053C15.9848 26.3629 16.6605 21.6314 19.173 17.7369C20.18 18.7207 21.9137 19.3441 23.8347 19.4022C23.9306 19.4052 24.0251 19.4066 24.1195 19.4066C26.0711 19.4066 27.796 18.7948 28.8815 17.7078C31.6773 14.912 31.9999 9.44083 31.9999 5.56811C32.0015 5.16711 31.6774 4.84308 31.2749 4.84308Z" fill="#00B307"/>
</svg>
