<svg width="32" height="32" viewBox="0 0 32 32" fill="none" xmlns="http://www.w3.org/2000/svg">
<path d="M31.2749 4.34259C27.4022 4.34259 21.9311 4.66662 19.1352 7.46105C17.9247 8.67155 17.3202 10.6449 17.4771 12.8785C17.4975 13.1735 17.6937 13.4248 17.9756 13.5179C18.256 13.6094 18.5641 13.5237 18.7559 13.2985C20.3108 11.4689 22.2435 10.0027 24.5046 8.94041C24.6964 8.84886 24.9231 8.84157 25.1295 8.91425C25.3111 8.97965 25.4535 9.10314 25.5276 9.26158C25.6816 9.58711 25.6322 10.0158 25.1207 10.257C25.0917 10.2715 25.0655 10.2904 25.0365 10.3035C25.0263 10.3079 25.0147 10.3064 25.006 10.3108C19.4346 12.9294 16.6954 17.4981 15.4514 22.1962C14.5446 16.3138 12.6294 12.8509 10.8202 10.7249C9.51095 9.02767 8.22341 8.12812 7.47943 7.61956C7.34136 7.52508 6.92435 7.24028 6.7514 7.06733C6.46803 6.78397 6.46803 6.32329 6.7514 6.03993C7.03477 5.75799 7.49687 5.75799 7.81218 6.07187C7.88923 6.14019 8.01272 6.22738 8.16966 6.33201L8.29902 6.4192C9.35108 7.13995 11.31 8.47831 13.0479 11.3599C13.2034 11.6171 13.5042 11.7552 13.7963 11.7C14.0928 11.6476 14.3252 11.4195 14.3834 11.1245C14.7627 9.18747 14.5927 6.31308 12.8649 4.58529C10.069 1.79229 4.59789 1.46826 0.726671 1.46826C0.32553 1.46819 0 1.79372 0 2.1948C0 6.06745 0.324032 11.5386 3.11846 14.3345C4.28387 15.4999 6.08147 16.0231 7.86736 16.0231C9.32486 16.0231 10.7533 15.6583 11.8476 15.0262C13.3399 18.1185 14.5316 22.7381 14.5316 29.8048C14.5316 30.2059 14.8571 30.5314 15.2582 30.5314C15.6592 30.5314 15.9848 30.2059 15.9848 29.8048C15.9848 25.8624 16.6605 21.1309 19.173 17.2364C20.18 18.2202 21.9137 18.8437 23.8347 18.9018C23.9306 18.9047 24.0251 18.9061 24.1195 18.9061C26.0711 18.9061 27.796 18.2944 28.8815 17.2073C31.6773 14.4115 31.9999 8.94034 31.9999 5.06763C32.0015 4.66662 31.6774 4.34259 31.2749 4.34259Z" fill="#00B307"/>
</svg>
