<svg width="32" height="32" viewBox="0 0 32 32" fill="none" xmlns="http://www.w3.org/2000/svg">
<path d="M31.2749 4.34283C27.4022 4.34283 21.9311 4.66687 19.1352 7.46129C17.9247 8.6718 17.3202 10.6451 17.4771 12.8787C17.4975 13.1737 17.6937 13.4251 17.9756 13.5181C18.256 13.6097 18.5641 13.5239 18.7559 13.2987C20.3108 11.4692 22.2435 10.0029 24.5046 8.94066C24.6964 8.84911 24.9231 8.84182 25.1295 8.9145C25.3111 8.97989 25.4535 9.10339 25.5276 9.26183C25.6816 9.58736 25.6322 10.016 25.1207 10.2572C25.0917 10.2717 25.0655 10.2907 25.0365 10.3037C25.0263 10.3081 25.0147 10.3067 25.006 10.311C19.4346 12.9296 16.6954 17.4984 15.4514 22.1964C14.5446 16.314 12.6294 12.8511 10.8202 10.7252C9.51095 9.02791 8.22341 8.12836 7.47943 7.6198C7.34136 7.52532 6.92435 7.24053 6.7514 7.06758C6.46803 6.78421 6.46803 6.32354 6.7514 6.04017C7.03477 5.75823 7.49687 5.75823 7.81218 6.07212C7.88923 6.14044 8.01272 6.22763 8.16966 6.33226L8.29902 6.41945C9.35108 7.14019 11.31 8.47855 13.0479 11.3602C13.2034 11.6174 13.5042 11.7554 13.7963 11.7002C14.0928 11.6479 14.3252 11.4198 14.3834 11.1248C14.7627 9.18771 14.5927 6.31332 12.8649 4.58553C10.069 1.79254 4.59789 1.46851 0.726671 1.46851C0.32553 1.46844 0 1.79397 0 2.19504C0 6.06769 0.324032 11.5388 3.11846 14.3348C4.28387 15.5002 6.08147 16.0233 7.86736 16.0233C9.32486 16.0233 10.7533 15.6585 11.8476 15.0264C13.3399 18.1187 14.5316 22.7383 14.5316 29.8051C14.5316 30.2061 14.8571 30.5317 15.2582 30.5317C15.6592 30.5317 15.9848 30.2061 15.9848 29.8051C15.9848 25.8627 16.6605 21.1311 19.173 17.2367C20.18 18.2205 21.9137 18.8439 23.8347 18.902C23.9306 18.9049 24.0251 18.9064 24.1195 18.9064C26.0711 18.9064 27.796 18.2946 28.8815 17.2076C31.6773 14.4117 31.9999 8.94059 31.9999 5.06787C32.0015 4.66687 31.6774 4.34283 31.2749 4.34283Z" fill="#00B307"/>
</svg>
