<svg width="32" height="32" viewBox="0 0 32 32" fill="none" xmlns="http://www.w3.org/2000/svg">
<path d="M31.2749 4.34308C27.4022 4.34308 21.9311 4.66711 19.1352 7.46154C17.9247 8.67204 17.3202 10.6454 17.4771 12.8789C17.4975 13.174 17.6937 13.4253 17.9756 13.5184C18.256 13.6099 18.5641 13.5241 18.7559 13.2989C20.3108 11.4694 22.2435 10.0032 24.5046 8.9409C24.6964 8.84935 24.9231 8.84206 25.1295 8.91474C25.3111 8.98013 25.4535 9.10363 25.5276 9.26207C25.6816 9.5876 25.6322 10.0163 25.1207 10.2575C25.0917 10.272 25.0655 10.2909 25.0365 10.304C25.0263 10.3083 25.0147 10.3069 25.006 10.3113C19.4346 12.9299 16.6954 17.4986 15.4514 22.1966C14.5446 16.3143 12.6294 12.8514 10.8202 10.7254C9.51095 9.02816 8.22341 8.12861 7.47943 7.62005C7.34136 7.52557 6.92435 7.24077 6.7514 7.06782C6.46803 6.78445 6.46803 6.32378 6.7514 6.04041C7.03477 5.75848 7.49687 5.75848 7.81218 6.07236C7.88923 6.14068 8.01272 6.22787 8.16966 6.3325L8.29902 6.41969C9.35108 7.14043 11.31 8.47879 13.0479 11.3604C13.2034 11.6176 13.5042 11.7557 13.7963 11.7005C14.0928 11.6481 14.3252 11.42 14.3834 11.125C14.7627 9.18796 14.5927 6.31356 12.8649 4.58578C10.069 1.79278 4.59789 1.46875 0.726671 1.46875C0.32553 1.46868 0 1.79421 0 2.19528C0 6.06793 0.324032 11.5391 3.11846 14.335C4.28387 15.5004 6.08147 16.0236 7.86736 16.0236C9.32486 16.0236 10.7533 15.6588 11.8476 15.0267C13.3399 18.119 14.5316 22.7386 14.5316 29.8053C14.5316 30.2064 14.8571 30.5319 15.2582 30.5319C15.6592 30.5319 15.9848 30.2064 15.9848 29.8053C15.9848 25.8629 16.6605 21.1314 19.173 17.2369C20.18 18.2207 21.9137 18.8441 23.8347 18.9022C23.9306 18.9052 24.0251 18.9066 24.1195 18.9066C26.0711 18.9066 27.796 18.2948 28.8815 17.2078C31.6773 14.412 31.9999 8.94083 31.9999 5.06811C32.0015 4.66711 31.6774 4.34308 31.2749 4.34308Z" fill="#00B307"/>
</svg>
