<svg width="40" height="40" viewBox="0 0 40 40" fill="none" xmlns="http://www.w3.org/2000/svg">
<circle cx="20" cy="20" r="19.5" fill="white" stroke="#F2F2F2"/>
<path d="M20 13.541C13.75 13.541 11.25 20.0001 11.25 20.0001C11.25 20.0001 13.75 26.4577 20 26.4577C26.25 26.4577 28.75 20.0001 28.75 20.0001C28.75 20.0001 26.25 13.541 20 13.541V13.541Z" stroke="#1A1A1A" stroke-width="1.5" stroke-linecap="round" stroke-linejoin="round"/>
<path d="M20 23.125C20.8288 23.125 21.6237 22.7958 22.2097 22.2097C22.7958 21.6237 23.125 20.8288 23.125 20C23.125 19.1712 22.7958 18.3763 22.2097 17.7903C21.6237 17.2042 20.8288 16.875 20 16.875C19.1712 16.875 18.3763 17.2042 17.7903 17.7903C17.2042 18.3763 16.875 19.1712 16.875 20C16.875 20.8288 17.2042 21.6237 17.7903 22.2097C18.3763 22.7958 19.1712 23.125 20 23.125V23.125Z" stroke="#1A1A1A" stroke-width="1.5" stroke-linecap="round" stroke-linejoin="round"/>
</svg>
