<svg width="24" height="24" viewBox="0 0 24 24" fill="none" xmlns="http://www.w3.org/2000/svg">
<path d="M13.8204 22H10.1804C9.9523 22 9.73107 21.9221 9.55337 21.7792C9.37567 21.6362 9.25218 21.4368 9.20337 21.214L8.79637 19.33C8.25343 19.0921 7.73861 18.7946 7.26137 18.443L5.42437 19.028C5.20694 19.0973 4.97232 19.0902 4.75949 19.0078C4.54666 18.9254 4.36842 18.7727 4.25437 18.575L2.43037 15.424C2.31752 15.2261 2.27516 14.9958 2.31021 14.7708C2.34527 14.5457 2.45568 14.3392 2.62337 14.185L4.04837 12.885C3.98357 12.2961 3.98357 11.7019 4.04837 11.113L2.62337 9.816C2.45544 9.66177 2.34489 9.45507 2.30982 9.22978C2.27476 9.00449 2.31726 8.77397 2.43037 8.576L4.25037 5.423C4.36442 5.22532 4.54266 5.07259 4.75549 4.99019C4.96832 4.90778 5.20294 4.90066 5.42037 4.97L7.25737 5.555C7.50137 5.375 7.75537 5.207 8.01837 5.055C8.27037 4.913 8.53037 4.784 8.79637 4.669L9.20437 2.787C9.25294 2.5642 9.3762 2.36469 9.55372 2.22155C9.73123 2.07841 9.95234 2.00024 10.1804 2H13.8204C14.0484 2.00024 14.2695 2.07841 14.447 2.22155C14.6245 2.36469 14.7478 2.5642 14.7964 2.787L15.2084 4.67C15.751 4.9079 16.2655 5.20539 16.7424 5.557L18.5804 4.972C18.7977 4.90292 19.0321 4.91017 19.2447 4.99256C19.4573 5.07495 19.6354 5.22753 19.7494 5.425L21.5694 8.578C21.8024 8.985 21.7214 9.5 21.3764 9.817L19.9514 11.117C20.0162 11.7059 20.0162 12.3001 19.9514 12.889L21.3764 14.189C21.7214 14.507 21.8014 15.021 21.5694 15.428L19.7494 18.581C19.6354 18.7785 19.4573 18.931 19.2447 19.0134C19.0321 19.0958 18.7977 19.1031 18.5804 19.034L16.7424 18.449C16.2656 18.8004 15.7511 19.0976 15.2084 19.335L14.7964 21.214C14.7476 21.4366 14.6243 21.6359 14.4468 21.7788C14.2693 21.9218 14.0483 21.9998 13.8204 22ZM7.62037 16.229L8.44037 16.829C8.62537 16.965 8.81837 17.09 9.01737 17.204C9.20537 17.313 9.39837 17.411 9.59637 17.5L10.5294 17.909L10.9864 20H13.0164L13.4734 17.908L14.4064 17.499C14.8134 17.319 15.2004 17.096 15.5594 16.833L16.3804 16.233L18.4214 16.883L19.4364 15.125L17.8534 13.682L17.9654 12.67C18.0154 12.227 18.0154 11.78 17.9654 11.338L17.8534 10.326L19.4374 8.88L18.4214 7.121L16.3804 7.771L15.5594 7.171C15.2002 6.90669 14.8136 6.68173 14.4064 6.5L13.4734 6.091L13.0164 4H10.9864L10.5274 6.092L9.59637 6.5C9.18856 6.67861 8.80185 6.90198 8.44337 7.166L7.62237 7.766L5.58237 7.116L4.56537 8.88L6.14837 10.321L6.03637 11.334C5.98637 11.777 5.98637 12.224 6.03637 12.666L6.14837 13.678L4.56537 15.121L5.58037 16.879L7.62037 16.229ZM11.9964 16C10.9355 16 9.91809 15.5786 9.16795 14.8284C8.4178 14.0783 7.99637 13.0609 7.99637 12C7.99637 10.9391 8.4178 9.92172 9.16795 9.17157C9.91809 8.42143 10.9355 8 11.9964 8C13.0572 8 14.0747 8.42143 14.8248 9.17157C15.5749 9.92172 15.9964 10.9391 15.9964 12C15.9964 13.0609 15.5749 14.0783 14.8248 14.8284C14.0747 15.5786 13.0572 16 11.9964 16ZM11.9964 10C11.6047 10.0004 11.2218 10.1158 10.8952 10.3318C10.5685 10.5479 10.3124 10.855 10.1588 11.2153C10.0051 11.5755 9.96059 11.9729 10.0307 12.3583C10.1009 12.7436 10.2826 13.0998 10.5534 13.3828C10.8242 13.6657 11.1721 13.863 11.5539 13.95C11.9358 14.037 12.3348 14.01 12.7014 13.8724C13.0681 13.7347 13.3862 13.4924 13.6164 13.1756C13.8466 12.8587 13.9787 12.4812 13.9964 12.09V12.49V12C13.9964 11.4696 13.7857 10.9609 13.4106 10.5858C13.0355 10.2107 12.5268 10 11.9964 10Z" fill="#1A1A1A"/>
</svg>
