<svg width="40" height="40" viewBox="0 0 40 40" fill="none" xmlns="http://www.w3.org/2000/svg">
<g clip-path="url(#clip0_1917_5606)">
<path d="M28.982 16.292C28.9398 15.3356 28.7852 14.6781 28.5636 14.1084C28.335 13.5036 27.9834 12.9621 27.5227 12.512C27.0726 12.0549 26.5276 11.6997 25.9298 11.4747C25.3568 11.2531 24.7027 11.0985 23.7463 11.0563C22.7827 11.0106 22.4768 11 20.033 11C17.5892 11 17.2833 11.0106 16.3233 11.0527C15.3669 11.0949 14.7094 11.2497 14.1397 11.4711C13.5348 11.6997 12.9934 12.0513 12.5433 12.512C12.0861 12.9621 11.7311 13.5072 11.506 14.1049C11.2844 14.6781 11.1297 15.3321 11.0876 16.2885C11.0418 17.252 11.0312 17.5579 11.0312 20.0018C11.0312 22.4456 11.0418 22.7515 11.084 23.7115C11.1262 24.6679 11.281 25.3254 11.5025 25.8952C11.7311 26.4999 12.0861 27.0414 12.5433 27.4915C12.9934 27.9486 13.5384 28.3038 14.1362 28.5288C14.7094 28.7504 15.3633 28.905 16.3199 28.9472C17.2797 28.9895 17.5857 28.9999 20.0296 28.9999C22.4734 28.9999 22.7793 28.9895 23.7393 28.9472C24.6957 28.905 25.3532 28.7504 25.9228 28.5288C27.1325 28.0611 28.0889 27.1047 28.5566 25.8952C28.778 25.322 28.9328 24.6679 28.975 23.7115C29.0172 22.7515 29.0277 22.4456 29.0277 20.0018C29.0277 17.5579 29.0242 17.252 28.982 16.292ZM27.3611 23.6411C27.3223 24.5202 27.1747 24.9949 27.0516 25.3114C26.7491 26.0956 26.1268 26.7179 25.3426 27.0204C25.0261 27.1434 24.548 27.2911 23.6724 27.3297C22.723 27.372 22.4382 27.3824 20.0366 27.3824C17.6349 27.3824 17.3466 27.372 16.4006 27.3297C15.5215 27.2911 15.0468 27.1434 14.7304 27.0204C14.3401 26.8761 13.9849 26.6476 13.6966 26.3487C13.3978 26.0568 13.1692 25.7052 13.025 25.315C12.9019 24.9985 12.7542 24.5202 12.7156 23.6447C12.6733 22.6953 12.6629 22.4104 12.6629 20.0088C12.6629 17.6071 12.6733 17.3188 12.7156 16.373C12.7542 15.4939 12.9019 15.0192 13.025 14.7027C13.1692 14.3123 13.3978 13.9573 13.7002 13.6688C13.992 13.3699 14.3436 13.1414 14.7339 12.9973C15.0504 12.8742 15.5287 12.7266 16.4042 12.6878C17.3536 12.6457 17.6385 12.6351 20.04 12.6351C22.4452 12.6351 22.73 12.6457 23.6759 12.6878C24.555 12.7266 25.0297 12.8742 25.3462 12.9973C25.7364 13.1414 26.0916 13.3699 26.3799 13.6688C26.6788 13.9607 26.9074 14.3123 27.0516 14.7027C27.1747 15.0192 27.3223 15.4973 27.3611 16.373C27.4032 17.3224 27.4138 17.6071 27.4138 20.0088C27.4138 22.4104 27.4032 22.6917 27.3611 23.6411Z" fill="#4D4D4D"/>
<path d="M20.0331 15.3779C17.4804 15.3779 15.4092 17.449 15.4092 20.0019C15.4092 22.5548 17.4804 24.6258 20.0331 24.6258C22.586 24.6258 24.6571 22.5548 24.6571 20.0019C24.6571 17.449 22.586 15.3779 20.0331 15.3779ZM20.0331 23.0013C18.377 23.0013 17.0337 21.6581 17.0337 20.0019C17.0337 18.3456 18.377 17.0024 20.0331 17.0024C21.6894 17.0024 23.0326 18.3456 23.0326 20.0019C23.0326 21.6581 21.6894 23.0013 20.0331 23.0013Z" fill="#4D4D4D"/>
<path d="M25.9199 15.1952C25.9199 15.7913 25.4365 16.2747 24.8402 16.2747C24.2441 16.2747 23.7607 15.7913 23.7607 15.1952C23.7607 14.5989 24.2441 14.1157 24.8402 14.1157C25.4365 14.1157 25.9199 14.5989 25.9199 15.1952Z" fill="#4D4D4D"/>
</g>
<defs>
<clipPath id="clip0_1917_5606">
<rect width="18" height="18" fill="white" transform="translate(11 11)"/>
</clipPath>
</defs>
</svg>
