<svg width="40" height="40" viewBox="0 0 40 40" fill="none" xmlns="http://www.w3.org/2000/svg">
<g clip-path="url(#clip0_629_2697)">
<path d="M29 14.4189C28.3306 14.7125 27.6174 14.9071 26.8737 15.0016C27.6388 14.5449 28.2226 13.8271 28.4971 12.962C27.7839 13.3873 26.9964 13.6876 26.1571 13.8553C25.4799 13.1341 24.5146 12.6875 23.4616 12.6875C21.4186 12.6875 19.7739 14.3458 19.7739 16.3786C19.7739 16.6711 19.7986 16.9524 19.8594 17.2201C16.7915 17.0705 14.0769 15.6001 12.2533 13.3603C11.9349 13.9126 11.7481 14.5449 11.7481 15.2255C11.7481 16.5035 12.4062 17.6364 13.3872 18.2923C12.7944 18.281 12.2127 18.1089 11.72 17.8378C11.72 17.849 11.72 17.8636 11.72 17.8783C11.72 19.6715 12.9991 21.161 14.6765 21.5041C14.3761 21.5863 14.0487 21.6256 13.709 21.6256C13.4727 21.6256 13.2342 21.6121 13.0104 21.5626C13.4885 23.024 14.8453 24.0984 16.4585 24.1333C15.203 25.1154 13.6089 25.7071 11.8831 25.7071C11.5805 25.7071 11.2902 25.6936 11 25.6565C12.6346 26.7106 14.5719 27.3125 16.661 27.3125C23.4515 27.3125 27.164 21.6875 27.164 16.8118C27.164 16.6486 27.1584 16.4911 27.1505 16.3348C27.8829 15.815 28.4982 15.1659 29 14.4189Z" fill="#4D4D4D"/>
</g>
<defs>
<clipPath id="clip0_629_2697">
<rect width="18" height="18" fill="white" transform="translate(11 11)"/>
</clipPath>
</defs>
</svg>
