<svg width="18" height="19" viewBox="0 0 18 19" fill="none" xmlns="http://www.w3.org/2000/svg">
<path d="M9.31008 13.9111L12.8566 16.1577C13.31 16.4446 13.8725 16.0177 13.7381 15.4884L12.7138 11.4581C12.6848 11.3458 12.6882 11.2276 12.7234 11.1172C12.7586 11.0067 12.8243 10.9085 12.9129 10.8337L16.0933 8.18711C16.5106 7.83949 16.2958 7.14593 15.7586 7.11105L11.6056 6.84105C11.4938 6.83312 11.3866 6.79359 11.2964 6.72707C11.2061 6.66055 11.1367 6.56977 11.096 6.4653L9.5469 2.56493C9.50471 2.45408 9.42984 2.35867 9.33219 2.29136C9.23455 2.22404 9.11875 2.18799 9.00015 2.18799C8.88155 2.18799 8.76574 2.22404 8.6681 2.29136C8.57046 2.35867 8.49558 2.45408 8.4534 2.56493L6.90427 6.4653C6.86372 6.56988 6.79429 6.66077 6.70406 6.7274C6.61383 6.79402 6.50652 6.83364 6.39465 6.84161L2.24171 7.11161C1.70508 7.14593 1.48908 7.83949 1.90702 8.18711L5.0874 10.8342C5.17588 10.909 5.2415 11.0072 5.27673 11.1175C5.31195 11.2278 5.31534 11.3459 5.28652 11.4581L4.33702 15.1959C4.17558 15.8309 4.85115 16.3434 5.39452 15.9986L8.69077 13.9111C8.78342 13.8522 8.89093 13.8209 9.00071 13.8209C9.11049 13.8209 9.218 13.8522 9.31065 13.9111H9.31008Z" fill="#CCCCCC"/>
</svg>
