<svg width="20" height="20" viewBox="0 0 20 20" fill="none" xmlns="http://www.w3.org/2000/svg">
<path d="M10.3445 14.9012L14.2852 17.3974C14.7889 17.7162 15.4139 17.2418 15.2645 16.6537L14.1264 12.1756C14.0943 12.0508 14.098 11.9195 14.1371 11.7968C14.1763 11.6741 14.2492 11.5649 14.3477 11.4818L17.8814 8.54118C18.3452 8.15493 18.1064 7.38431 17.5095 7.34556L12.8952 7.04556C12.7709 7.03675 12.6517 6.99283 12.5515 6.91891C12.4513 6.845 12.3741 6.74414 12.3289 6.62806L10.6077 2.29431C10.5608 2.17115 10.4776 2.06514 10.3691 1.99034C10.2606 1.91554 10.1319 1.87549 10.0002 1.87549C9.86838 1.87549 9.73972 1.91554 9.63122 1.99034C9.52273 2.06514 9.43953 2.17115 9.39266 2.29431L7.67141 6.62806C7.62636 6.74425 7.54921 6.84525 7.44895 6.91928C7.3487 6.99331 7.22947 7.03732 7.10516 7.04618L2.49079 7.34618C1.89454 7.38431 1.65454 8.15493 2.11891 8.54118L5.65266 11.4824C5.75098 11.5655 5.82389 11.6746 5.86303 11.7972C5.90216 11.9198 5.90594 12.0509 5.87391 12.1756L4.81891 16.3287C4.63954 17.0343 5.39016 17.6037 5.99391 17.2206L9.65641 14.9012C9.75935 14.8357 9.87881 14.801 10.0008 14.801C10.1228 14.801 10.2422 14.8357 10.3452 14.9012H10.3445Z" fill="#FF8A00"/>
</svg>
