<svg width="12" height="13" viewBox="0 0 12 13" fill="none" xmlns="http://www.w3.org/2000/svg">
<path d="M6.20672 9.44091L8.5711 10.9387C8.87335 11.1299 9.24835 10.8453 9.15872 10.4924L8.47585 7.80553C8.45656 7.73069 8.45878 7.65192 8.48227 7.57829C8.50575 7.50465 8.54954 7.43914 8.6086 7.38928L10.7288 5.62491C11.0071 5.39316 10.8638 4.93078 10.5057 4.90753L7.7371 4.72753C7.66255 4.72224 7.59105 4.69589 7.5309 4.65154C7.47075 4.6072 7.42444 4.54668 7.39735 4.47703L6.3646 1.87678C6.33648 1.80288 6.28656 1.73928 6.22146 1.6944C6.15636 1.64952 6.07916 1.62549 6.0001 1.62549C5.92103 1.62549 5.84383 1.64952 5.77873 1.6944C5.71364 1.73928 5.66372 1.80288 5.6356 1.87678L4.60285 4.47703C4.57581 4.54675 4.52952 4.60734 4.46937 4.65176C4.40922 4.69618 4.33768 4.72259 4.2631 4.72791L1.49447 4.90791C1.13672 4.93078 0.992723 5.39316 1.27135 5.62491L3.3916 7.38966C3.45059 7.43948 3.49434 7.50493 3.51782 7.57849C3.5413 7.65205 3.54356 7.73074 3.52435 7.80553L2.89135 10.2974C2.78372 10.7208 3.2341 11.0624 3.59635 10.8325L5.79385 9.44091C5.85561 9.40164 5.92728 9.38078 6.00047 9.38078C6.07366 9.38078 6.14533 9.40164 6.2071 9.44091H6.20672Z" fill="#FF8A00"/>
</svg>
