<svg width="12" height="13" viewBox="0 0 12 13" fill="none" xmlns="http://www.w3.org/2000/svg">
<path d="M6.20672 9.44066L8.5711 10.9384C8.87335 11.1297 9.24835 10.845 9.15872 10.4922L8.47585 7.80529C8.45656 7.73044 8.45878 7.65168 8.48227 7.57804C8.50575 7.50441 8.54954 7.43889 8.6086 7.38904L10.7288 5.62466C11.0071 5.39291 10.8638 4.93054 10.5057 4.90729L7.7371 4.72729C7.66255 4.722 7.59105 4.69565 7.5309 4.6513C7.47075 4.60695 7.42444 4.54643 7.39735 4.47679L6.3646 1.87654C6.33648 1.80264 6.28656 1.73903 6.22146 1.69416C6.15636 1.64928 6.07916 1.62524 6.0001 1.62524C5.92103 1.62524 5.84383 1.64928 5.77873 1.69416C5.71364 1.73903 5.66372 1.80264 5.6356 1.87654L4.60285 4.47679C4.57581 4.5465 4.52952 4.6071 4.46937 4.65152C4.40922 4.69594 4.33768 4.72234 4.2631 4.72766L1.49447 4.90766C1.13672 4.93054 0.992723 5.39291 1.27135 5.62466L3.3916 7.38941C3.45059 7.43924 3.49434 7.50469 3.51782 7.57825C3.5413 7.65181 3.54356 7.7305 3.52435 7.80529L2.89135 10.2972C2.78372 10.7205 3.2341 11.0622 3.59635 10.8323L5.79385 9.44066C5.85561 9.4014 5.92728 9.38054 6.00047 9.38054C6.07366 9.38054 6.14533 9.4014 6.2071 9.44066H6.20672Z" fill="#CCCCCC"/>
</svg>
