<svg width="12" height="13" viewBox="0 0 12 13" fill="none" xmlns="http://www.w3.org/2000/svg">
<path d="M6.20672 9.44078L8.5711 10.9385C8.87335 11.1298 9.24835 10.8452 9.15872 10.4923L8.47585 7.80541C8.45656 7.73057 8.45878 7.6518 8.48227 7.57816C8.50575 7.50453 8.54954 7.43902 8.6086 7.38916L10.7288 5.62478C11.0071 5.39303 10.8638 4.93066 10.5057 4.90741L7.7371 4.72741C7.66255 4.72212 7.59105 4.69577 7.5309 4.65142C7.47075 4.60707 7.42444 4.54656 7.39735 4.47691L6.3646 1.87666C6.33648 1.80276 6.28656 1.73916 6.22146 1.69428C6.15636 1.6494 6.07916 1.62537 6.0001 1.62537C5.92103 1.62537 5.84383 1.6494 5.77873 1.69428C5.71364 1.73916 5.66372 1.80276 5.6356 1.87666L4.60285 4.47691C4.57581 4.54663 4.52952 4.60722 4.46937 4.65164C4.40922 4.69606 4.33768 4.72246 4.2631 4.72778L1.49447 4.90778C1.13672 4.93066 0.992723 5.39303 1.27135 5.62478L3.3916 7.38953C3.45059 7.43936 3.49434 7.50481 3.51782 7.57837C3.5413 7.65193 3.54356 7.73062 3.52435 7.80541L2.89135 10.2973C2.78372 10.7207 3.2341 11.0623 3.59635 10.8324L5.79385 9.44078C5.85561 9.40152 5.92728 9.38066 6.00047 9.38066C6.07366 9.38066 6.14533 9.40152 6.2071 9.44078H6.20672Z" fill="#FF8A00"/>
</svg>
