<svg width="132" height="32" viewBox="0 0 132 32" fill="none" xmlns="http://www.w3.org/2000/svg">
<g clip-path="url(#clip0_629_3421)">
<path d="M113.182 0C111.112 0 109.419 1.6718 109.424 3.74189C109.419 5.82247 111.127 7.48903 113.203 7.48379C115.273 7.48903 116.929 5.82247 116.929 3.74189C116.924 1.67704 115.252 0 113.182 0ZM45.2512 0.062889C43.1706 0.062889 41.4936 1.71897 41.4936 3.78906C41.4936 5.86964 43.1758 7.5624 45.2512 7.56764C47.316 7.56764 48.9931 5.86964 48.9931 3.78906C48.9983 1.71897 47.316 0.062889 45.2512 0.062889ZM101.149 4.26597C99.0841 4.26597 97.3914 5.93777 97.3914 8.00786C97.3914 10.078 99.0789 11.7655 101.149 11.7655C103.224 11.7655 104.891 10.0832 104.891 8.00786C104.896 5.94301 103.224 4.26597 101.149 4.26597ZM125.288 4.26597C123.223 4.26597 121.53 5.93777 121.53 8.00786C121.53 10.078 123.223 11.7655 125.288 11.7655C127.368 11.7655 129.014 10.078 129.014 8.00786C129.014 5.93777 127.368 4.26073 125.288 4.26597ZM57.09 4.32886C55.0252 4.32886 53.3324 6.02162 53.3324 8.08647C53.3324 10.1618 55.0199 11.8284 57.09 11.8284C59.1496 11.8284 60.8319 10.1566 60.8319 8.08647C60.8319 6.02162 59.1549 4.32886 57.09 4.32886ZM33.1922 4.42843C31.1274 4.42319 29.4503 6.09499 29.4503 8.15984V8.17557C29.4503 10.2509 31.1169 11.9384 33.1922 11.9332C35.2518 11.9332 36.9341 10.2457 36.9341 8.17557C36.9341 6.10023 35.2518 4.42843 33.1922 4.42843ZM114.466 13.17C114.466 13.17 107.019 13.2172 106.93 13.2172C105.661 13.2172 104.587 14.2968 104.587 15.5598L104.571 29.1019H104.587C104.645 30.7055 105.986 32 107.6 32C109.23 32 110.572 30.7055 110.629 29.1019V24.3957C110.629 24.3957 113.606 24.38 113.706 24.38C114.854 24.38 115.807 23.4681 115.807 22.3151C115.807 21.1569 114.859 20.2136 113.706 20.2136H110.629V18.961H114.471C116.064 18.961 117.343 17.6875 117.338 16.0943C117.332 14.5169 116.059 13.17 114.466 13.17ZM128.17 13.17C128.17 13.17 120.723 13.2172 120.634 13.2172C119.355 13.2172 118.291 14.2915 118.291 15.5598V29.1019H118.307C118.36 30.7055 119.68 32 121.305 32C122.94 32 124.25 30.7108 124.303 29.1019H124.318V24.3957C124.318 24.3957 127.29 24.38 127.395 24.38C128.542 24.38 129.496 23.4681 129.496 22.3151C129.496 21.1569 128.542 20.2136 127.395 20.2136H124.313V18.961H128.155C129.737 18.961 131.021 17.6875 131.021 16.0943C131.021 14.5169 129.753 13.1648 128.17 13.17ZM60.7638 13.2014C59.1758 13.2014 57.8971 14.4802 57.8971 16.0524C57.8971 16.1572 57.9181 16.2673 57.9285 16.3773L57.9128 29.0757L57.9285 29.2224C58.0072 30.7213 59.2492 31.9266 60.7795 31.9266C62.3675 31.9266 63.6462 30.6531 63.6462 29.0757C63.6462 28.8922 63.6305 28.7193 63.599 28.5568V24.7887L67.865 30.5169C67.9279 30.6112 67.996 30.7055 68.0589 30.8104L68.0746 30.8418C68.6249 31.4812 69.4582 31.8847 70.3701 31.8847C72.0314 31.8847 73.3678 30.5431 73.3678 28.887C73.373 28.3105 73.2106 27.7445 72.8961 27.2571L72.8489 27.1942C72.807 27.1261 72.7703 27.058 72.7179 27.0003L68.8607 21.8225L71.9999 18.0282H71.9842C72.393 17.5303 72.6498 16.8962 72.6498 16.1887C72.6446 14.5745 71.3344 13.2434 69.7202 13.2434C68.6616 13.2434 67.7445 13.8041 67.2309 14.6426L63.599 19.0239V16.4821C63.6147 16.3406 63.6305 16.1887 63.6305 16.0419C63.6305 14.4802 62.3465 13.2014 60.7638 13.2014ZM2.54433 13.2172C1.14505 13.2172 0.0235347 14.3596 0.0235347 15.738C0.0235347 15.738 0.0078125 29.1857 0.0078125 29.4111C0.0078125 30.8418 1.09789 31.9161 2.52861 31.9161L9.03762 31.9319C12.2345 31.9319 14.8339 29.3482 14.8339 26.1513C14.8339 24.3433 14.0268 22.7344 12.7323 21.6757C13.4923 20.7743 13.9692 19.6056 13.9692 18.3217C13.9744 15.5126 11.6423 13.2067 8.80702 13.2119H2.54433V13.2172ZM46.4932 13.301C41.3783 13.301 37.2171 17.4569 37.2171 22.5771C37.2171 27.6973 41.3783 31.869 46.4932 31.869C51.6134 31.869 55.7746 27.6973 55.7694 22.5771C55.7694 17.4569 51.6134 13.301 46.4932 13.301ZM25.5093 13.3325C20.3838 13.3325 16.2436 17.4989 16.2489 22.6295C16.2489 27.7445 20.3786 31.8952 25.5093 31.8899C30.64 31.8899 34.7854 27.7445 34.7854 22.6295C34.7854 17.5041 30.64 13.3325 25.5093 13.3325ZM93.8067 13.3325C88.6655 13.3325 84.4939 17.5146 84.4939 22.661C84.4939 27.7969 88.6603 31.9738 93.8067 31.9738C98.9426 31.9738 103.119 27.7969 103.119 22.661C103.119 17.5146 98.9479 13.3325 93.8067 13.3325ZM5.06513 17.4307H7.39202C8.16765 17.4307 8.7913 18.0439 8.7913 18.83C8.7913 19.5952 8.16241 20.1978 7.39202 20.1978C7.31865 20.1978 5.06513 20.2136 5.06513 20.2136V17.4307ZM78.2993 18.6518C76.2292 18.6518 74.5627 20.3393 74.5574 22.4094C74.5627 24.4795 76.2292 26.167 78.2993 26.167C80.3747 26.167 82.0569 24.4795 82.0569 22.4094C82.0517 20.3446 80.3642 18.6518 78.2993 18.6518ZM46.4932 18.7357C48.621 18.7357 50.3504 20.4599 50.3504 22.5929C50.3504 24.7154 48.621 26.4343 46.4932 26.4343C44.3655 26.4343 42.6518 24.7049 42.6518 22.5771C42.6465 20.4599 44.3602 18.7409 46.4775 18.7357H46.4932ZM25.5093 18.7671C27.6318 18.7671 29.3665 20.4913 29.3665 22.6243C29.3665 24.752 27.637 26.471 25.5093 26.4658C23.4025 26.471 21.6731 24.752 21.6678 22.6243C21.6678 20.4913 23.3973 18.7671 25.5093 18.7671ZM93.8067 18.7986C95.9397 18.7986 97.6639 20.5123 97.6639 22.6557C97.6639 24.7835 95.9344 26.5129 93.8067 26.5129C91.6737 26.5129 89.9443 24.7835 89.9495 22.6557C89.9443 20.528 91.6632 18.8038 93.791 18.7986H93.8067ZM5.06513 24.1703L8.02615 24.186C8.83323 24.186 9.49356 24.8254 9.49356 25.6325C9.48832 26.4501 8.83847 27.0999 8.02615 27.0999H5.08085L5.06513 24.1703ZM128.039 27.0999C126.687 27.0999 125.613 28.1847 125.613 29.5421C125.618 30.9047 126.682 31.9843 128.039 31.9843C129.391 31.9843 130.481 30.8994 130.481 29.5421C130.487 28.1952 129.397 27.1051 128.05 27.0999C128.05 27.0999 128.044 27.0999 128.039 27.0999ZM128.039 27.3462C129.245 27.3462 130.235 28.3262 130.235 29.5421C130.235 30.7527 129.245 31.738 128.039 31.738C126.829 31.738 125.859 30.7475 125.859 29.5421C125.859 28.3262 126.829 27.3462 128.039 27.3462ZM126.933 28.0956V30.9256H127.52V29.8199H128.123C128.296 29.8199 128.422 29.8408 128.479 29.9037C128.542 29.9561 128.579 30.0819 128.579 30.2601V30.5221C128.579 30.6112 128.59 30.6846 128.595 30.7684C128.605 30.8156 128.626 30.8732 128.642 30.9309H129.292V30.868C129.234 30.8366 129.192 30.7632 129.176 30.6898C129.166 30.6426 129.161 30.5588 129.161 30.4278V30.2496C129.161 30.0504 129.135 29.9037 129.077 29.8094C129.024 29.7098 128.92 29.6364 128.799 29.584C128.946 29.5316 129.077 29.4373 129.14 29.3063C129.208 29.1805 129.234 29.0495 129.239 28.9132C129.239 28.7979 129.224 28.7088 129.192 28.6197C129.15 28.5306 129.093 28.452 129.03 28.3734C128.962 28.2843 128.867 28.2214 128.768 28.1795C128.658 28.1323 128.521 28.1061 128.327 28.0956H126.933ZM127.52 28.5988H128.202C128.333 28.5988 128.417 28.6145 128.479 28.6459C128.595 28.7036 128.658 28.8136 128.658 28.9866C128.658 29.1386 128.59 29.2434 128.479 29.2958C128.411 29.3272 128.322 29.3429 128.186 29.3429H127.52V28.5988Z" fill="#CCCCCC"/>
</g>
<defs>
<clipPath id="clip0_629_3421">
<rect width="131.019" height="32" fill="white" transform="translate(0.00292969)"/>
</clipPath>
</defs>
</svg>
