<svg width="52" height="51" viewBox="0 0 52 51" fill="none" xmlns="http://www.w3.org/2000/svg">
<g clip-path="url(#clip0_460_40738)">
<path d="M48.95 5.9502H3.05C1.64172 5.9502 0.5 7.09182 0.5 8.5002V42.5002C0.5 43.9084 1.64162 45.0502 3.05 45.0502H48.95C50.3583 45.0502 51.5 43.9085 51.5 42.5002V8.5002C51.5 7.09192 50.3584 5.9502 48.95 5.9502ZM49.8 42.5003C49.8 42.9697 49.4195 43.3502 48.95 43.3502H3.05C2.58054 43.3502 2.20003 42.9697 2.20003 42.5003V8.5002C2.20003 8.03074 2.58054 7.65023 3.05 7.65023H48.95C49.4195 7.65023 49.8 8.03074 49.8 8.5002V42.5003Z" fill="#2C742F"/>
<path d="M47.3239 9.35387C47.0993 9.33424 46.8761 9.40467 46.7035 9.5497L27.0939 26.0226C26.4614 26.5542 25.5384 26.5542 24.9059 26.0226L5.29654 9.5496C5.06395 9.35437 4.7448 9.29799 4.45942 9.40178C4.17404 9.50557 3.96566 9.7538 3.91286 10.0529C3.86007 10.3521 3.97084 10.6566 4.20342 10.8518L23.8129 27.3239C25.0768 28.388 26.9231 28.388 28.1871 27.3239L47.7965 10.8519C47.9692 10.707 48.0772 10.4994 48.0968 10.2748C48.1164 10.0501 48.046 9.82691 47.901 9.65429C47.7561 9.48147 47.5485 9.37349 47.3239 9.35387Z" fill="#2C742F"/>
<path d="M16.8483 27.206C16.5474 27.1388 16.2338 27.2398 16.0286 27.4699L4.12856 40.2199C3.91321 40.4405 3.83412 40.7604 3.92197 41.0559C4.00983 41.3514 4.25079 41.5761 4.55161 41.6433C4.85253 41.7104 5.1661 41.6094 5.37129 41.3793L17.2713 28.6293C17.4867 28.4088 17.5658 28.0888 17.4779 27.7934C17.3901 27.4979 17.1492 27.2731 16.8483 27.206Z" fill="#2C742F"/>
<path d="M35.9714 27.4699C35.7663 27.2398 35.4526 27.1388 35.1517 27.206C34.8508 27.2731 34.6099 27.4979 34.5221 27.7934C34.4342 28.0889 34.5133 28.4088 34.7287 28.6293L46.6287 41.3793C46.9514 41.7098 47.479 41.7221 47.8167 41.407C48.1545 41.0918 48.1788 40.5647 47.8714 40.2198L35.9714 27.4699Z" fill="#2C742F"/>
</g>
<defs>
<clipPath id="clip0_460_40738">
<rect width="51" height="51" fill="white" transform="translate(0.5)"/>
</clipPath>
</defs>
</svg>
