<svg width="40" height="86" viewBox="0 0 40 86" fill="none" xmlns="http://www.w3.org/2000/svg">
<circle cx="20" cy="20" r="19.5" fill="white" stroke="#F2F2F2"/>
<path d="M19.9996 27.5451C3.33328 18.3333 14.9999 8.3333 19.9996 14.6567C24.9999 8.3333 36.6666 18.3333 19.9996 27.5451Z" stroke="#1A1A1A" stroke-width="1.5"/>
<circle cx="20" cy="66" r="19.5" fill="white" stroke="#F2F2F2"/>
<path d="M20 59.541C13.75 59.541 11.25 66.0001 11.25 66.0001C11.25 66.0001 13.75 72.4577 20 72.4577C26.25 72.4577 28.75 66.0001 28.75 66.0001C28.75 66.0001 26.25 59.541 20 59.541V59.541Z" stroke="#1A1A1A" stroke-width="1.5" stroke-linecap="round" stroke-linejoin="round"/>
<path d="M20 69.125C20.8288 69.125 21.6237 68.7958 22.2097 68.2097C22.7958 67.6237 23.125 66.8288 23.125 66C23.125 65.1712 22.7958 64.3763 22.2097 63.7903C21.6237 63.2042 20.8288 62.875 20 62.875C19.1712 62.875 18.3763 63.2042 17.7903 63.7903C17.2042 64.3763 16.875 65.1712 16.875 66C16.875 66.8288 17.2042 67.6237 17.7903 68.2097C18.3763 68.7958 19.1712 69.125 20 69.125V69.125Z" stroke="#1A1A1A" stroke-width="1.5" stroke-linecap="round" stroke-linejoin="round"/>
</svg>
