<svg width="32" height="32" viewBox="0 0 32 32" fill="none" xmlns="http://www.w3.org/2000/svg">
<path d="M16.0029 28.0548C12.7229 28.0548 12.3363 28.0375 11.0563 27.9815C10.0581 27.9487 9.07283 27.7458 8.14293 27.3815C7.34717 27.0718 6.6245 26.6 6.02082 25.9961C5.41714 25.3922 4.94564 24.6694 4.63626 23.8735C4.286 22.9402 4.09709 21.9542 4.0776 20.9575C4.00293 19.6802 4.00293 19.2615 4.00293 16.0068C4.00293 12.7175 4.02026 12.3335 4.0776 11.0602C4.09751 10.0649 4.28642 9.08018 4.63626 8.14817C4.94529 7.35128 5.41711 6.62761 6.02159 6.02335C6.62607 5.4191 7.34993 4.94756 8.14693 4.63884C9.07845 4.28711 10.0634 4.09769 11.0589 4.07884C12.3323 4.00684 12.7509 4.00684 16.0029 4.00684C19.3096 4.00684 19.6896 4.02417 20.9496 4.07884C21.9469 4.0975 22.9363 4.28684 23.8696 4.63884C24.6664 4.94791 25.3901 5.41958 25.9945 6.02379C26.5989 6.628 27.0709 7.35149 27.3803 8.14817C27.7363 9.09484 27.9269 10.0948 27.9416 11.1042C28.0163 12.3815 28.0163 12.7988 28.0163 16.0522C28.0163 19.3055 27.9976 19.7322 27.9416 20.9948C27.9217 21.9924 27.7323 22.9794 27.3816 23.9135C27.0714 24.7099 26.599 25.4332 25.9945 26.0373C25.3899 26.6414 24.6663 27.1133 23.8696 27.4228C22.9363 27.7722 21.9509 27.9615 20.9549 27.9815C19.6816 28.0548 19.2643 28.0548 16.0029 28.0548ZM15.9576 6.1175C12.6963 6.1175 12.3576 6.1335 11.0843 6.19084C10.3238 6.20078 9.57066 6.34103 8.8576 6.6055C8.3375 6.80486 7.86496 7.11098 7.47042 7.50414C7.07588 7.89731 6.7681 8.36878 6.56693 8.88817C6.30026 9.60817 6.16026 10.3695 6.15226 11.1375C6.0816 12.4295 6.0816 12.7682 6.0816 16.0068C6.0816 19.2068 6.0936 19.5948 6.15226 20.8788C6.16426 21.6388 6.30426 22.3922 6.56693 23.1055C6.97493 24.1548 7.80693 24.9842 8.85893 25.3868C9.57108 25.653 10.3241 25.7933 11.0843 25.8015C12.3749 25.8762 12.7149 25.8762 15.9576 25.8762C19.2283 25.8762 19.5669 25.8602 20.8296 25.8015C21.5901 25.7923 22.3434 25.652 23.0563 25.3868C23.5736 25.186 24.0434 24.8796 24.436 24.4873C24.8285 24.095 25.1351 23.6254 25.3363 23.1082C25.6029 22.3882 25.7429 21.6255 25.7509 20.8575H25.7656C25.8229 19.5828 25.8229 19.2428 25.8229 15.9855C25.8229 12.7282 25.8083 12.3855 25.7509 11.1122C25.7389 10.3528 25.5987 9.60088 25.3363 8.88817C25.1355 8.37023 24.8292 7.89977 24.4366 7.50677C24.0441 7.11376 23.574 6.80682 23.0563 6.6055C22.3429 6.33884 21.5896 6.20017 20.8296 6.19084C19.5403 6.1175 19.2029 6.1175 15.9576 6.1175ZM16.0029 22.1655C14.7837 22.1663 13.5916 21.8055 12.5774 21.1287C11.5633 20.4519 10.7726 19.4896 10.3054 18.3634C9.83822 17.2373 9.71551 15.9978 9.95278 14.8019C10.1901 13.606 10.7767 12.5073 11.6384 11.6448C12.5002 10.7823 13.5984 10.1947 14.7941 9.9564C15.9898 9.71808 17.2294 9.83973 18.3559 10.3059C19.4825 10.7722 20.4455 11.562 21.1232 12.5756C21.8008 13.5892 22.1627 14.7809 22.1629 16.0002C22.1608 17.6337 21.5113 19.1999 20.3567 20.3555C19.2021 21.5111 17.6365 22.162 16.0029 22.1655ZM16.0029 11.9975C15.2118 11.9975 14.4384 12.2321 13.7806 12.6716C13.1229 13.1111 12.6102 13.7359 12.3074 14.4668C12.0047 15.1977 11.9254 16.0019 12.0798 16.7779C12.2341 17.5538 12.6151 18.2665 13.1745 18.8259C13.7339 19.3853 14.4466 19.7663 15.2226 19.9206C15.9985 20.075 16.8028 19.9958 17.5337 19.693C18.2646 19.3903 18.8893 18.8776 19.3288 18.2198C19.7683 17.562 20.0029 16.7886 20.0029 15.9975C20.0005 14.9374 19.5782 13.9214 18.8286 13.1718C18.079 12.4222 17.063 12 16.0029 11.9975ZM22.4029 11.0468C22.2142 11.0461 22.0274 11.0083 21.8533 10.9354C21.6792 10.8625 21.5211 10.756 21.3881 10.6221C21.1196 10.3515 20.9695 9.98537 20.9709 9.60417C20.9723 9.22296 21.1251 8.85793 21.3957 8.58938C21.6662 8.32083 22.0324 8.17075 22.4136 8.17217C22.7948 8.17358 23.1598 8.32637 23.4284 8.59693C23.6969 8.86748 23.847 9.23363 23.8456 9.61484C23.8442 9.99604 23.6914 10.3611 23.4208 10.6296C23.1503 10.8982 22.7841 11.0482 22.4029 11.0468Z" fill="white"/>
</svg>
