<svg width="40" height="40" viewBox="0 0 40 40" fill="none" xmlns="http://www.w3.org/2000/svg">
<g clip-path="url(#clip0_604_20508)">
<path d="M36.4905 0.538949C36.4372 0.343152 36.3046 0.178413 36.1246 0.0846357C35.7694 -0.103321 35.329 0.032269 35.141 0.387478C35.1405 0.388382 35.14 0.389287 35.1396 0.390192C35.1396 0.410294 31.4528 7.56272 20.1352 8.80906C18.6589 8.96657 17.2158 9.35173 15.8574 9.95088C13.4259 11.008 11.4178 12.8477 10.1523 15.1775C8.97092 17.3659 8.48162 19.8614 8.74919 22.3339C8.94629 24.1363 9.54826 25.8709 10.5102 27.4078C8.49992 28.8511 2.12345 33.8405 1.54852 39.1958C1.5063 39.5954 1.79618 39.9537 2.19581 39.9959C2.59555 40.0381 2.95367 39.7482 2.99589 39.3486C3.52257 34.5682 9.50504 29.9326 11.3705 28.5898C13.6099 31.3398 16.963 32.8917 20.5613 33.145C22.9832 33.3013 25.4079 32.8883 27.6414 31.9389C30.0659 30.9216 32.2072 29.3308 33.8812 27.3032C38.1951 22.0766 40.2496 13.2919 36.4905 0.538949ZM11.7887 26.6881C11.5113 26.2512 11.2667 25.7943 11.0569 25.3211C10.6155 24.3228 10.3307 23.2624 10.2126 22.1771C9.96638 19.9995 10.3869 17.7984 11.4188 15.865C12.5341 13.8152 14.3032 12.1975 16.4444 11.2696C17.6685 10.7366 18.9677 10.3962 20.296 10.2605C27.766 9.45636 32.1604 6.13143 34.428 3.71914C33.0957 8.10538 30.8019 12.1393 27.7138 15.5273L27.2715 11.0726C27.249 10.6713 26.9054 10.3643 26.5042 10.3868C26.103 10.4093 25.7959 10.7529 25.8184 11.1541C25.8195 11.1739 25.8214 11.1937 25.8241 11.2133L26.391 16.9385C23.0098 20.3679 18.3099 23.8135 11.7887 26.6881ZM32.7554 26.3705V26.3745C31.2345 28.2262 29.2863 29.6806 27.0785 30.6121C25.0483 31.4701 22.8448 31.8391 20.6458 31.6896C17.5845 31.5345 14.7118 30.1639 12.6651 27.8822C15.0635 26.8209 17.3826 25.5888 19.6045 24.1954L25.993 25.4016C26.39 25.4638 26.7623 25.1923 26.8245 24.7953C26.8845 24.4123 26.6338 24.0495 26.2543 23.9703L21.3453 23.0415C23.612 21.4848 25.7219 19.7115 27.6454 17.7466C27.6807 17.7162 27.713 17.6826 27.7419 17.6461C32.8157 12.3632 34.9747 7.13655 35.8753 3.92017C38.36 14.5181 36.4583 21.8917 32.7554 26.3705Z" fill="#00B307"/>
</g>
<defs>
<clipPath id="clip0_604_20508">
<rect width="40" height="40" fill="white"/>
</clipPath>
</defs>
</svg>
