<svg width="45" height="32" viewBox="0 0 45 32" fill="none" xmlns="http://www.w3.org/2000/svg">
<rect x="0.5" y="0.5" width="44" height="30.7647" rx="4.79412" fill="#1A1A1A" stroke="#333333"/>
<path d="M18.5293 30.6767L43.6764 23.0664V26.7061C43.6764 28.899 41.8987 30.6767 39.7058 30.6767H18.5293Z" fill="#FD6020"/>
<path fill-rule="evenodd" clip-rule="evenodd" d="M38.9032 12.0588C40.2867 12.0588 41.0476 12.6988 41.0476 13.9076C41.1168 14.8321 40.4942 15.6143 39.6641 15.7565L41.5318 18.3875H40.0792L38.4882 15.8276H38.3498V18.3875H37.1738V12.0588H38.9032ZM38.3501 14.9743H38.6959C39.4568 14.9743 39.8027 14.6188 39.8027 13.9788C39.8027 13.4099 39.4568 13.0544 38.6959 13.0544H38.3501V14.9743ZM33.0928 18.3875H36.4131V17.3209H34.2687V15.6143H36.3439V14.5476H34.2687V13.1254H36.4131V12.0588H33.0928V18.3875ZM29.6344 16.3254L28.0434 12.0588H26.7982L29.3577 18.5297H29.9802L32.5397 12.0588H31.2945L29.6344 16.3254ZM15.5915 15.2587C15.5915 17.0365 16.975 18.5298 18.7044 18.5298C19.2577 18.5298 19.742 18.3875 20.2262 18.1742V16.752C19.8803 17.1787 19.3961 17.4631 18.8427 17.4631C17.7359 17.4631 16.8367 16.6098 16.8367 15.4721V15.3298C16.7675 14.1921 17.6667 13.1966 18.7735 13.1255C19.3269 13.1255 19.8803 13.4099 20.2262 13.8366V12.4144C19.8111 12.1299 19.2577 12.0588 18.7735 12.0588C16.975 11.9166 15.5915 13.4099 15.5915 15.2587ZM13.4475 14.4765C12.7557 14.1921 12.5482 14.0499 12.5482 13.6943C12.6174 13.2677 12.9632 12.9121 13.3783 12.9832C13.7241 12.9832 14.07 13.1966 14.3467 13.481L14.9693 12.6277C14.4851 12.201 13.8625 11.9166 13.2399 11.9166C12.2715 11.8455 11.4414 12.6277 11.3722 13.6232V13.6943C11.3722 14.5476 11.7181 15.0454 12.8249 15.401C13.1016 15.4721 13.3783 15.6143 13.655 15.7565C13.8625 15.8987 14.0008 16.112 14.0008 16.3965C14.0008 16.8942 13.5858 17.3209 13.1708 17.3209H13.1016C12.5482 17.3209 12.064 16.9654 11.8565 16.4676L11.0955 17.2498C11.5106 18.032 12.3407 18.4586 13.1708 18.4586C14.2775 18.5298 15.1768 17.6764 15.246 16.5387V16.3254C15.1768 15.4721 14.8309 15.0454 13.4475 14.4765ZM9.43531 18.3875H10.6113V12.0588H9.43531V18.3875ZM3.97058 12.0588H5.69993H6.0458C7.70597 12.1299 9.02028 13.5521 8.9511 15.2587C8.9511 16.1832 8.53606 17.0365 7.84432 17.6765C7.22175 18.1742 6.46084 18.4587 5.69993 18.3875H3.97058V12.0588ZM5.49252 17.3209C6.04591 17.392 6.66847 17.1787 7.08352 16.8231C7.49856 16.3965 7.70608 15.8276 7.70608 15.1876C7.70608 14.6187 7.49856 14.0499 7.08352 13.6232C6.66847 13.2677 6.04591 13.0543 5.49252 13.1254H5.14665V17.3209H5.49252Z" fill="white"/>
<path fill-rule="evenodd" clip-rule="evenodd" d="M23.7541 11.9121C22.0248 11.9121 20.5721 13.3343 20.5721 15.1831C20.5721 16.9609 21.9556 18.4542 23.7541 18.5253C25.5527 18.5964 26.9361 17.1031 27.0053 15.2542C26.9361 13.4054 25.5527 11.9121 23.7541 11.9121V11.9121Z" fill="#FD6020"/>
</svg>
