<svg width="40" height="40" viewBox="0 0 40 40" fill="none" xmlns="http://www.w3.org/2000/svg">
<g clip-path="url(#clip0_629_3586)">
<path d="M38.3957 9.43014C38.3957 9.27818 38.3619 9.12621 38.2944 8.98269C38.1593 8.69565 37.8976 8.50148 37.6105 8.44238L20.4134 0.101309C20.1348 -0.0337695 19.8056 -0.0337695 19.527 0.101309L2.161 8.51836C1.8233 8.67877 1.6038 9.01646 1.58691 9.39637V9.40481C1.58691 9.41325 1.58691 9.4217 1.58691 9.43858V30.5614C1.58691 30.9498 1.80642 31.3043 2.161 31.4732L19.527 39.8903C19.5354 39.8903 19.5354 39.8903 19.5439 39.8987C19.5692 39.9071 19.5945 39.9156 19.6198 39.9325C19.6283 39.9325 19.6367 39.9409 19.6536 39.9409C19.6789 39.9493 19.7043 39.9578 19.7296 39.9662C19.738 39.9662 19.7465 39.9747 19.7549 39.9747C19.7802 39.9831 19.814 39.9831 19.8393 39.9916C19.8478 39.9916 19.8562 39.9916 19.8647 39.9916C19.8984 39.9916 19.9406 40 19.9744 40C20.0082 40 20.0504 40 20.0842 39.9916C20.0926 39.9916 20.1011 39.9916 20.1095 39.9916C20.1348 39.9916 20.1686 39.9831 20.1939 39.9747C20.2024 39.9747 20.2108 39.9662 20.2192 39.9662C20.2446 39.9578 20.2699 39.9493 20.2952 39.9409C20.3037 39.9409 20.3121 39.9325 20.329 39.9325C20.3543 39.924 20.3797 39.9156 20.405 39.8987C20.4134 39.8987 20.4134 39.8987 20.4219 39.8903L37.8385 31.4479C38.1846 31.279 38.4126 30.9244 38.4126 30.5361V9.45547C38.3957 9.44702 38.3957 9.43858 38.3957 9.43014ZM19.966 2.13592L35.0272 9.43858L29.4805 12.1317L14.4193 4.82904L19.966 2.13592ZM19.966 16.7412L4.90477 9.43858L12.0977 5.95188L27.1589 13.2545L19.966 16.7412ZM3.61309 11.068L18.9529 18.5057V37.3575L3.61309 29.9198V11.068ZM20.9791 37.3575V18.5057L28.1804 15.0106V19.9409C28.1804 20.4981 28.6363 20.954 29.1935 20.954C29.7507 20.954 30.2066 20.4981 30.2066 19.9409V14.0228L36.3695 11.0342V29.886L20.9791 37.3575Z" fill="#00B307"/>
</g>
<defs>
<clipPath id="clip0_629_3586">
<rect width="40" height="40" fill="white"/>
</clipPath>
</defs>
</svg>
