<svg width="52" height="51" viewBox="0 0 52 51" fill="none" xmlns="http://www.w3.org/2000/svg">
<path d="M31.9829 7.24219C34.9249 8.03345 37.6074 9.58385 39.7616 11.7381C41.9159 13.8923 43.4663 16.5748 44.2575 19.5168" stroke="#2C742F" stroke-width="2" stroke-linecap="round" stroke-linejoin="round"/>
<path d="M30.1865 13.9502C31.9513 14.425 33.5604 15.3551 34.8527 16.6474C36.145 17.9396 37.0751 19.5488 37.5499 21.3136" stroke="#2C742F" stroke-width="2" stroke-linecap="round" stroke-linejoin="round"/>
<path d="M17.4625 25.6416C19.2621 29.322 22.2449 32.292 25.933 34.0757C26.2031 34.2036 26.5018 34.2589 26.7998 34.2361C27.0977 34.2133 27.3846 34.1131 27.632 33.9456L33.0639 30.3255C33.3038 30.1653 33.5799 30.0674 33.8671 30.0408C34.1544 30.0141 34.4437 30.0595 34.709 30.1728L44.8699 34.5287C45.215 34.6753 45.5032 34.9301 45.691 35.2546C45.8788 35.5792 45.9561 35.956 45.9112 36.3283C45.5895 38.8411 44.3631 41.1506 42.4616 42.8244C40.56 44.4983 38.1135 45.4217 35.5802 45.4219C27.7558 45.4219 20.2518 42.3136 14.7191 36.7809C9.18637 31.2482 6.07813 23.7442 6.07812 15.9198C6.07836 13.3866 7.00185 10.9404 8.67571 9.03914C10.3496 7.13784 12.659 5.91181 15.1717 5.59057C15.544 5.54568 15.9208 5.62294 16.2454 5.81074C16.5699 5.99853 16.8247 6.28669 16.9713 6.63182L21.3307 16.8014C21.4428 17.0641 21.4883 17.3505 21.4632 17.6351C21.4381 17.9196 21.3431 18.1936 21.1867 18.4327L17.577 23.9478C17.4132 24.1962 17.3165 24.4828 17.2964 24.7796C17.2764 25.0765 17.3336 25.3734 17.4625 25.6416V25.6416Z" stroke="#2C742F" stroke-width="2" stroke-linecap="round" stroke-linejoin="round"/>
</svg>
