<svg width="32" height="33" viewBox="0 0 32 33" fill="none" xmlns="http://www.w3.org/2000/svg">
<g clip-path="url(#clip0_460_43081)">
<path d="M28.0671 24.7501C28.326 24.7501 28.5359 24.5402 28.5359 24.2813V13.0313C28.5359 12.4718 28.3178 11.8995 27.9219 11.4198L24.4454 7.20769C24.2633 6.987 24.0539 6.801 23.8265 6.65287C23.8405 6.50962 23.8484 6.36494 23.8484 6.21887V0.968872C23.8484 0.709997 23.6385 0.500122 23.3797 0.500122C23.1208 0.500122 22.9109 0.709997 22.9109 0.968872C22.9109 0.968872 22.91 6.26356 22.9096 6.28593C22.7762 6.26231 22.6409 6.25012 22.5047 6.25012H16.4422C16.0154 6.25012 15.597 6.36987 15.2224 6.58994C15.2062 6.59575 15.1902 6.60225 15.1744 6.60994L10.605 8.83568C10.0987 9.08962 9.69392 9.51556 9.46498 10.035C9.46248 10.0407 9.46011 10.0464 9.45786 10.0521L7.56861 14.8441C7.47367 15.085 7.59192 15.3572 7.83279 15.4522C7.88923 15.4744 7.94736 15.4849 8.00461 15.4849C8.19148 15.4849 8.36811 15.3724 8.44079 15.188L10.3264 10.4052C10.4682 10.0884 10.7161 9.82887 11.0204 9.67612L13.4347 8.50019L11.0249 11.4199C10.6641 11.857 10.4734 12.4143 10.4734 13.0314V29.2189C10.4734 29.4074 10.49 29.592 10.52 29.7719L5.68992 27.6316C4.59879 27.1482 4.10429 25.864 4.58779 24.769C4.58986 24.7642 4.59186 24.7594 4.59386 24.7547L7.64904 17.1619C7.74567 16.9217 7.62936 16.6487 7.38917 16.5521C7.14886 16.4554 6.87598 16.5718 6.77929 16.8119L3.72679 24.3976C3.04042 25.9632 3.74942 27.7971 5.31011 28.4886L10.9741 30.9984C10.981 31.0014 10.9881 31.0037 10.9951 31.0064C11.57 31.9046 12.5639 32.5001 13.6922 32.5001H25.2547C27.0333 32.5001 28.5359 30.9974 28.5359 29.2188V26.4688C28.5359 26.2099 28.326 26.0001 28.0672 26.0001C27.8083 26.0001 27.5984 26.2099 27.5984 26.4688V29.2188C27.5984 30.4893 26.5251 31.5626 25.2547 31.5626H13.6922C12.4343 31.5626 11.4109 30.5112 11.4109 29.2188V13.0313C11.4109 12.6289 11.5243 12.2875 11.748 12.0166L15.2244 7.80444C15.548 7.41244 15.9919 7.18756 16.4422 7.18756H22.5047C22.593 7.18756 22.681 7.1965 22.7679 7.21337C22.4745 8.21406 21.7476 9.04906 20.766 9.4675C20.5094 9.03819 20.0401 8.75006 19.5046 8.75006C18.6947 8.75006 18.0359 9.40894 18.0359 10.2188C18.0359 11.0287 18.6947 11.6876 19.5046 11.6876C20.2535 11.6876 20.8729 11.1239 20.962 10.3986C22.2244 9.92112 23.179 8.90937 23.6044 7.67444C23.6452 7.7155 23.6847 7.75869 23.7224 7.80444L27.1989 12.0166C27.4565 12.3287 27.5984 12.6891 27.5984 13.0314V24.2814C27.5984 24.5402 27.8082 24.7501 28.0671 24.7501ZM19.5046 10.7501C19.2117 10.7501 18.9734 10.5117 18.9734 10.2188C18.9734 9.92587 19.2117 9.68756 19.5046 9.68756C19.7975 9.68756 20.0359 9.92587 20.0359 10.2188C20.0359 10.5117 19.7975 10.7501 19.5046 10.7501Z" fill="#00B307"/>
<path d="M15.4424 25.4375C15.5623 25.4375 15.6823 25.3917 15.7738 25.3002L23.7738 17.3002C23.9569 17.1171 23.9569 16.8203 23.7738 16.6373C23.5908 16.4542 23.294 16.4542 23.111 16.6373L15.111 24.6373C14.8121 24.9159 15.0414 25.4517 15.4424 25.4375Z" fill="#00B307"/>
<path d="M16.4414 20.5C17.5614 20.5 18.4727 19.5887 18.4727 18.4687C18.4727 17.3487 17.5614 16.4375 16.4414 16.4375H16.3789C15.2589 16.4375 14.3477 17.3487 14.3477 18.4687C14.3477 19.5887 15.2589 20.5 16.3789 20.5H16.4414ZM15.2852 18.4687C15.2852 17.8657 15.7758 17.375 16.3789 17.375H16.4414C17.0445 17.375 17.5352 17.8657 17.5352 18.4687C17.5352 19.0718 17.0445 19.5625 16.4414 19.5625H16.3789C15.7758 19.5625 15.2852 19.0718 15.2852 18.4687Z" fill="#00B307"/>
<path d="M22.5039 25.4375H22.5664C23.6864 25.4375 24.5977 24.5262 24.5977 23.4062C24.5977 22.2862 23.6864 21.375 22.5664 21.375H22.5039C21.3839 21.375 20.4727 22.2862 20.4727 23.4062C20.4727 24.5262 21.3839 25.4375 22.5039 25.4375ZM22.5039 22.3125H22.5664C23.1695 22.3125 23.6602 22.8032 23.6602 23.4062C23.6602 24.0093 23.1695 24.5 22.5664 24.5H22.5039C21.9008 24.5 21.4102 24.0093 21.4102 23.4062C21.4102 22.8032 21.9008 22.3125 22.5039 22.3125Z" fill="#00B307"/>
</g>
<defs>
<clipPath id="clip0_460_43081">
<rect width="32" height="32" fill="white" transform="translate(0 0.5)"/>
</clipPath>
</defs>
</svg>
