<svg width="24" height="24" viewBox="0 0 24 24" fill="none" xmlns="http://www.w3.org/2000/svg">
<path d="M4 20V13H11L7.783 16.22C8.33247 16.7819 8.98837 17.2287 9.71241 17.5343C10.4364 17.8399 11.2141 17.9983 12 18C13.2393 17.9982 14.4475 17.6127 15.4589 16.8965C16.4702 16.1802 17.2349 15.1684 17.648 14H17.666C17.78 13.675 17.867 13.34 17.925 13H19.937C19.6934 14.9333 18.7527 16.7111 17.2913 18C15.83 19.2888 13.9485 20 12 20H11.99C10.9398 20.0032 9.89944 19.798 8.9291 19.3963C7.95876 18.9946 7.07772 18.4045 6.337 17.66L4 20ZM6.074 11H4.062C4.30548 9.06751 5.24564 7.29019 6.70616 6.00145C8.16667 4.7127 10.0472 4.00108 11.995 4.00004H12C13.0504 3.99671 14.0909 4.20183 15.0615 4.6035C16.032 5.00517 16.9132 5.59541 17.654 6.34004L20 4.00004V11H13L16.222 7.78004C15.672 7.21752 15.0153 6.77035 14.2903 6.46471C13.5654 6.15907 12.7867 6.0011 12 6.00004C10.7607 6.00187 9.55246 6.38738 8.54114 7.10361C7.52982 7.81985 6.76508 8.83166 6.352 10H6.334C6.219 10.325 6.132 10.66 6.075 11H6.074Z" fill="#CCCCCC"/>
</svg>
