<svg width="41" height="40" viewBox="0 0 41 40" fill="none" xmlns="http://www.w3.org/2000/svg">
<g clip-path="url(#clip0_629_3558)">
<path d="M36.6468 34.6678L34.345 8.72697C34.3036 8.21362 33.873 7.82447 33.3514 7.82447H28.4994C28.4911 3.51066 24.9805 0 20.6667 0C16.3528 0 12.8422 3.51066 12.8339 7.82447H7.98191C7.46856 7.82447 7.038 8.21362 6.98832 8.72697L4.68652 34.6678C4.68652 34.7009 4.68652 34.7257 4.68652 34.7589C4.68652 37.6485 7.34436 40 10.6066 40H30.7267C33.9889 40 36.6468 37.6485 36.6468 34.7589C36.6468 34.7257 36.6468 34.7009 36.6468 34.6678ZM20.6667 1.98717C23.8875 1.98717 26.504 4.6036 26.5122 7.82447H14.8211C14.8294 4.6036 17.4458 1.98717 20.6667 1.98717ZM30.7267 38.0046H10.6066C8.45386 38.0046 6.69853 36.5721 6.67369 34.792L8.89269 9.81163H12.8339V13.2975C12.8339 13.8439 13.281 14.291 13.8275 14.291C14.374 14.291 14.8211 13.8439 14.8211 13.2975V9.81163H26.5122V13.2975C26.5122 13.8439 26.9593 14.291 27.5058 14.291C28.0523 14.291 28.4994 13.8439 28.4994 13.2975V9.81163H32.4406L34.6596 34.8002C34.6348 36.5721 32.8794 38.0046 30.7267 38.0046Z" fill="#00B307"/>
<path d="M24.7982 20.6831L18.9361 26.5453L16.5432 24.1524C16.154 23.7632 15.5248 23.7632 15.1356 24.1524C14.7465 24.5415 14.7465 25.1708 15.1356 25.56L18.2323 28.6566C18.4227 28.8471 18.6794 28.9464 18.9361 28.9464C19.1927 28.9464 19.4411 28.8471 19.6399 28.6566L26.2058 22.0907C26.5949 21.7015 26.5949 21.0723 26.2058 20.6831C25.8166 20.3022 25.1874 20.3022 24.7982 20.6831Z" fill="#00B307"/>
</g>
<defs>
<clipPath id="clip0_629_3558">
<rect width="40" height="40" fill="white" transform="translate(0.666992)"/>
</clipPath>
</defs>
</svg>
