<svg width="40" height="40" viewBox="0 0 40 40" fill="none" xmlns="http://www.w3.org/2000/svg">
<path d="M20.2445 11C15.3111 11 12.6875 14.1614 12.6875 17.6085C12.6875 19.2072 13.5808 21.2008 15.0107 21.8331C15.2279 21.931 15.346 21.8894 15.3944 21.688C15.4371 21.535 15.625 20.7981 15.7161 20.4504C15.7443 20.339 15.7296 20.2423 15.6396 20.1377C15.1649 19.5886 14.788 18.5885 14.788 17.6502C14.788 15.2459 16.6994 12.9115 19.952 12.9115C22.7646 12.9115 24.7323 14.7385 24.7323 17.352C24.7323 20.3053 23.1696 22.3484 21.1389 22.3484C20.015 22.3484 19.1779 21.4663 19.4434 20.375C19.7641 19.0756 20.393 17.6783 20.393 16.7411C20.393 15.9007 19.9182 15.2054 18.9484 15.2054C17.8042 15.2054 16.8761 16.3384 16.8761 17.8594C16.8761 18.8259 17.2181 19.4784 17.2181 19.4784C17.2181 19.4784 16.0863 24.0506 15.8759 24.9045C15.5204 26.3502 15.9243 28.6914 15.9591 28.8928C15.9805 29.0042 16.1054 29.0391 16.1752 28.9479C16.2865 28.8017 17.6546 26.8497 18.0382 25.4389C18.1777 24.9248 18.7504 22.84 18.7504 22.84C19.1273 23.5207 20.2152 24.0911 21.374 24.0911C24.8212 24.0911 27.312 21.0613 27.312 17.3014C27.2997 13.6967 24.2148 11 20.2445 11Z" fill="#4D4D4D"/>
</svg>
