<svg width="40" height="40" viewBox="0 0 40 40" fill="none" xmlns="http://www.w3.org/2000/svg">
<g clip-path="url(#clip0_1945_1040)">
<path d="M28.9825 16.292C28.9403 15.3356 28.7857 14.6781 28.5641 14.1084C28.3355 13.5036 27.9839 12.9621 27.5232 12.512C27.0731 12.0549 26.5281 11.6997 25.9303 11.4747C25.3573 11.2531 24.7032 11.0985 23.7468 11.0563C22.7832 11.0106 22.4773 11 20.0335 11C17.5896 11 17.2838 11.0106 16.3238 11.0527C15.3674 11.0949 14.7098 11.2497 14.1402 11.4711C13.5353 11.6997 12.9939 12.0513 12.5438 12.512C12.0866 12.9621 11.7316 13.5072 11.5064 14.1049C11.2849 14.6781 11.1302 15.3321 11.0881 16.2885C11.0423 17.252 11.0317 17.5579 11.0317 20.0018C11.0317 22.4456 11.0423 22.7515 11.0845 23.7115C11.1267 24.6679 11.2815 25.3254 11.503 25.8952C11.7316 26.4999 12.0866 27.0414 12.5438 27.4915C12.9939 27.9486 13.5389 28.3038 14.1367 28.5288C14.7098 28.7504 15.3638 28.905 16.3203 28.9472C17.2802 28.9895 17.5862 28.9999 20.03 28.9999C22.4739 28.9999 22.7798 28.9895 23.7398 28.9472C24.6962 28.905 25.3537 28.7504 25.9233 28.5288C27.133 28.0611 28.0894 27.1047 28.5571 25.8952C28.7785 25.322 28.9333 24.6679 28.9755 23.7115C29.0176 22.7515 29.0282 22.4456 29.0282 20.0018C29.0282 17.5579 29.0247 17.252 28.9825 16.292ZM27.3615 23.6411C27.3228 24.5202 27.1752 24.9949 27.0521 25.3114C26.7496 26.0956 26.1273 26.7179 25.3431 27.0204C25.0266 27.1434 24.5485 27.2911 23.6729 27.3297C22.7235 27.372 22.4387 27.3824 20.0371 27.3824C17.6354 27.3824 17.3471 27.372 16.4011 27.3297C15.522 27.2911 15.0473 27.1434 14.7309 27.0204C14.3406 26.8761 13.9854 26.6476 13.6971 26.3487C13.3982 26.0568 13.1697 25.7052 13.0255 25.315C12.9024 24.9985 12.7547 24.5202 12.7161 23.6447C12.6738 22.6953 12.6634 22.4104 12.6634 20.0088C12.6634 17.6071 12.6738 17.3188 12.7161 16.373C12.7547 15.4939 12.9024 15.0192 13.0255 14.7027C13.1697 14.3123 13.3982 13.9573 13.7007 13.6688C13.9924 13.3699 14.3441 13.1414 14.7344 12.9973C15.0509 12.8742 15.5292 12.7266 16.4047 12.6878C17.3541 12.6457 17.639 12.6351 20.0405 12.6351C22.4457 12.6351 22.7305 12.6457 23.6764 12.6878C24.5555 12.7266 25.0302 12.8742 25.3467 12.9973C25.7369 13.1414 26.0921 13.3699 26.3804 13.6688C26.6793 13.9607 26.9079 14.3123 27.0521 14.7027C27.1752 15.0192 27.3228 15.4973 27.3615 16.373C27.4037 17.3224 27.4143 17.6071 27.4143 20.0088C27.4143 22.4104 27.4037 22.6917 27.3615 23.6411Z" fill="#4D4D4D"/>
<path d="M20.0331 15.3779C17.4804 15.3779 15.4092 17.449 15.4092 20.0019C15.4092 22.5548 17.4804 24.6258 20.0331 24.6258C22.586 24.6258 24.6571 22.5548 24.6571 20.0019C24.6571 17.449 22.586 15.3779 20.0331 15.3779ZM20.0331 23.0013C18.377 23.0013 17.0337 21.6581 17.0337 20.0019C17.0337 18.3456 18.377 17.0024 20.0331 17.0024C21.6894 17.0024 23.0326 18.3456 23.0326 20.0019C23.0326 21.6581 21.6894 23.0013 20.0331 23.0013Z" fill="#4D4D4D"/>
<path d="M25.9199 15.1947C25.9199 15.7908 25.4365 16.2742 24.8402 16.2742C24.2441 16.2742 23.7607 15.7908 23.7607 15.1947C23.7607 14.5985 24.2441 14.1152 24.8402 14.1152C25.4365 14.1152 25.9199 14.5985 25.9199 15.1947Z" fill="#4D4D4D"/>
</g>
<defs>
<clipPath id="clip0_1945_1040">
<rect width="18" height="18" fill="white" transform="translate(11 11)"/>
</clipPath>
</defs>
</svg>
