<svg width="12" height="12" viewBox="0 0 12 12" fill="none" xmlns="http://www.w3.org/2000/svg">
<path d="M6.20672 8.94066L8.5711 10.4384C8.87335 10.6297 9.24835 10.345 9.15872 9.99216L8.47585 7.30529C8.45656 7.23044 8.45878 7.15168 8.48227 7.07804C8.50575 7.00441 8.54954 6.93889 8.6086 6.88904L10.7288 5.12466C11.0071 4.89291 10.8638 4.43054 10.5057 4.40729L7.7371 4.22729C7.66255 4.222 7.59105 4.19565 7.5309 4.1513C7.47075 4.10695 7.42444 4.04643 7.39735 3.97679L6.3646 1.37654C6.33648 1.30264 6.28656 1.23903 6.22146 1.19416C6.15636 1.14928 6.07916 1.12524 6.0001 1.12524C5.92103 1.12524 5.84383 1.14928 5.77873 1.19416C5.71364 1.23903 5.66372 1.30264 5.6356 1.37654L4.60285 3.97679C4.57581 4.0465 4.52952 4.1071 4.46937 4.15152C4.40922 4.19594 4.33768 4.22234 4.2631 4.22766L1.49447 4.40766C1.13672 4.43054 0.992723 4.89291 1.27135 5.12466L3.3916 6.88941C3.45059 6.93924 3.49434 7.00469 3.51782 7.07825C3.5413 7.15181 3.54356 7.2305 3.52435 7.30529L2.89135 9.79716C2.78372 10.2205 3.2341 10.5622 3.59635 10.3323L5.79385 8.94066C5.85561 8.9014 5.92728 8.88054 6.00047 8.88054C6.07366 8.88054 6.14533 8.9014 6.2071 8.94066H6.20672Z" fill="#FF8A00"/>
</svg>
