<svg width="40" height="40" viewBox="0 0 40 40" fill="none" xmlns="http://www.w3.org/2000/svg">
<g clip-path="url(#clip0_604_20469)">
<path d="M31.1384 17.3704C30.9781 16.8758 30.5586 16.5221 30.0439 16.4474L23.9436 15.5609L21.2156 10.0337C20.9859 9.56711 20.52 9.27734 19.9999 9.27734C19.4798 9.27734 19.0139 9.56711 18.7843 10.0332L16.056 15.5609L9.95566 16.4474C9.44137 16.5221 9.02199 16.8755 8.86113 17.3702C8.70082 17.8641 8.83215 18.3965 9.20426 18.7598L13.6187 23.0625L12.5766 29.138C12.4886 29.6503 12.695 30.1584 13.1157 30.4641C13.3533 30.637 13.6314 30.7248 13.9114 30.7247C14.1268 30.7247 14.3434 30.6727 14.5435 30.5675L19.9999 27.6989L25.4559 30.5676C25.6496 30.6693 25.8677 30.7231 26.0865 30.7231C26.375 30.7231 26.6505 30.6336 26.8837 30.4641C27.3036 30.1587 27.5104 29.6509 27.4228 29.1384L27.0106 26.7347C26.9515 26.3909 26.6247 26.1599 26.2813 26.2189C25.9375 26.2779 25.7066 26.6045 25.7656 26.9482L26.1778 29.3515C26.1836 29.3862 26.1691 29.422 26.1409 29.4424C26.099 29.473 26.0686 29.4627 26.0434 29.4494L20.2934 26.4264C20.1095 26.3298 19.8898 26.3297 19.7056 26.4264L13.955 29.4495C13.9243 29.4657 13.8861 29.4629 13.8579 29.4424C13.8293 29.4216 13.8151 29.387 13.8211 29.3519L14.9194 22.9488C14.9546 22.7438 14.8868 22.5348 14.7379 22.3898L10.0859 17.8555C10.0607 17.8309 10.0514 17.7936 10.0621 17.7606C10.0729 17.7273 10.1023 17.7024 10.1369 17.6974L16.5659 16.7632C16.7717 16.7333 16.9495 16.6041 17.0415 16.4177L19.9169 10.5918C19.9482 10.5284 20.0509 10.5279 20.0825 10.5921L22.9578 16.4177C23.0497 16.6041 23.2276 16.7333 23.4333 16.7632L29.8624 17.6974C29.8969 17.7025 29.9261 17.727 29.9371 17.7609C29.9479 17.7939 29.9386 17.831 29.9136 17.8553L25.2615 22.3898C25.1127 22.5348 25.0447 22.744 25.08 22.9488L25.427 24.9719C25.4858 25.3156 25.8125 25.5466 26.1561 25.4876C26.5 25.4286 26.7309 25.102 26.6718 24.7583L26.381 23.0625L30.7954 18.7595C31.1678 18.3964 31.2991 17.8639 31.1384 17.3704Z" fill="#00B307" stroke="#00B307" stroke-width="0.3"/>
<path d="M3.63141 19.3682H0.631562C0.282734 19.3682 0 19.6509 0 19.9997C0 20.3485 0.282734 20.6313 0.631562 20.6313H3.63141C3.98031 20.6313 4.26297 20.3485 4.26297 19.9997C4.26297 19.6509 3.98023 19.3682 3.63141 19.3682Z" fill="#00B307" stroke="#00B307" stroke-width="0.3"/>
<path d="M39.3682 19.3682H36.3684C36.0195 19.3682 35.7368 19.651 35.7368 19.9997C35.7368 20.3485 36.0195 20.6313 36.3684 20.6313H39.3682C39.7171 20.6313 39.9997 20.3485 39.9997 19.9997C39.9997 19.6509 39.7171 19.3682 39.3682 19.3682Z" fill="#00B307" stroke="#00B307" stroke-width="0.3"/>
<path d="M7.97907 31.1274L5.8579 33.2485C5.61118 33.495 5.61118 33.895 5.85782 34.1416C5.98118 34.265 6.14282 34.3266 6.30446 34.3266C6.46603 34.3266 6.62774 34.265 6.75095 34.1417L8.87212 32.0205C9.11884 31.7739 9.11884 31.374 8.8722 31.1274C8.62556 30.8807 8.22563 30.8807 7.97907 31.1274Z" fill="#00B307" stroke="#00B307" stroke-width="0.3"/>
<path d="M33.2487 5.85694L31.1274 7.97804C30.8807 8.22468 30.8807 8.6246 31.1274 8.87124C31.2507 8.9946 31.4123 9.05624 31.574 9.05624C31.7356 9.05624 31.8973 8.9946 32.0205 8.87116L34.1417 6.75007C34.3884 6.50351 34.3884 6.10358 34.1418 5.85694C33.8951 5.61022 33.4952 5.61015 33.2487 5.85694Z" fill="#00B307" stroke="#00B307" stroke-width="0.3"/>
<path d="M20.0002 35.7373C19.6513 35.7373 19.3687 36.0201 19.3687 36.3689V39.3686C19.3687 39.7175 19.6514 40.0002 20.0002 40.0002C20.3491 40.0002 20.6318 39.7174 20.6318 39.3686V36.3689C20.6318 36.02 20.3491 35.7373 20.0002 35.7373Z" fill="#00B307" stroke="#00B307" stroke-width="0.3"/>
<path d="M20.0002 4.26297C20.3491 4.26297 20.6318 3.98016 20.6318 3.63141V0.631562C20.6318 0.282734 20.349 0 20.0002 0C19.6513 0 19.3687 0.282812 19.3687 0.631562V3.63141C19.3687 3.98023 19.6513 4.26297 20.0002 4.26297Z" fill="#00B307" stroke="#00B307" stroke-width="0.3"/>
<path d="M32.0205 31.1274C31.774 30.8807 31.3741 30.8807 31.1274 31.1274C30.8807 31.3739 30.8807 31.7739 31.1274 32.0205L33.2487 34.1417C33.3719 34.265 33.5337 34.3267 33.6952 34.3267C33.8568 34.3267 34.0185 34.265 34.1418 34.1416C34.3884 33.895 34.3884 33.4951 34.1417 33.2485L32.0205 31.1274Z" fill="#00B307" stroke="#00B307" stroke-width="0.3"/>
<path d="M7.979 8.87214C8.10236 8.9955 8.264 9.05714 8.42564 9.05714C8.5872 9.05714 8.74892 8.9955 8.8722 8.87229C9.11884 8.62565 9.11884 8.22573 8.8722 7.97909L6.75103 5.85783C6.50447 5.61119 6.10463 5.61119 5.85783 5.85783C5.61119 6.1044 5.61119 6.50432 5.85783 6.75096L7.979 8.87214Z" fill="#00B307" stroke="#00B307" stroke-width="0.3"/>
</g>
<defs>
<clipPath id="clip0_604_20469">
<rect width="40" height="40" fill="white"/>
</clipPath>
</defs>
</svg>
